<?xml version="1.0" encoding="UTF-8" standalone="no"?>
<svg
   version="1.1"
   width="740"
   height="760"
   id="svg30"
   sodipodi:docname="angle-pi4.svg"
   inkscape:version="1.4.3 (0d15f75, 2025-12-25)"
   xmlns:inkscape="http://www.inkscape.org/namespaces/inkscape"
   xmlns:sodipodi="http://sodipodi.sourceforge.net/DTD/sodipodi-0.dtd"
   xmlns="http://www.w3.org/2000/svg"
   xmlns:svg="http://www.w3.org/2000/svg">
  <sodipodi:namedview
     id="namedview30"
     pagecolor="#ffffff"
     bordercolor="#000000"
     borderopacity="0.25"
     inkscape:showpageshadow="2"
     inkscape:pageopacity="0.0"
     inkscape:pagecheckerboard="0"
     inkscape:deskcolor="#d1d1d1"
     inkscape:zoom="0.8075"
     inkscape:cx="400.6192"
     inkscape:cy="400"
     inkscape:window-width="1440"
     inkscape:window-height="890"
     inkscape:window-x="-6"
     inkscape:window-y="1073"
     inkscape:window-maximized="1"
     inkscape:current-layer="svg30" />
  <defs
     id="defs1" />
  <g
     id="axis-844635a1"
     transform="matrix(2,0,0,2,-76.780187,14.860681)">
    <g
       id="yaxis-844635a1">
      <title
         id="title1">y</title>
      <g
         id="g3">
        <path
           fill="none"
           stroke="#000000"
           class="dcg-svg-axis-line"
           paint-order="fill stroke markers"
           d="M 203,3 V 400"
           stroke-opacity="0.9"
           stroke-miterlimit="10"
           stroke-width="1.5"
           stroke-dasharray="none"
           id="path1" />
        <g
           class="dcg-svg-axis-line"
           id="g2">
          <path
             fill="#000000"
             stroke="#000000"
             class="dcg-svg-axis-line"
             paint-order="stroke fill markers"
             d="m 203,1.5 3.10583,11.59111 h -6.21166 L 203,1.5 l 3.10583,11.59111"
             stroke-opacity="0.9"
             stroke-linejoin="round"
             stroke-miterlimit="10"
             stroke-width="1.5"
             stroke-dasharray="none"
             fill-opacity="0.9"
             id="path2" />
        </g>
      </g>
    </g>
    <g
       id="xaxis-844635a1">
      <title
         id="title3">x</title>
      <g
         id="g5">
        <path
           fill="none"
           stroke="#000000"
           class="dcg-svg-axis-line"
           paint-order="fill stroke markers"
           d="M 0,217 H 397"
           stroke-opacity="0.9"
           stroke-miterlimit="10"
           stroke-width="1.5"
           stroke-dasharray="none"
           id="path3" />
        <g
           class="dcg-svg-axis-line"
           id="g4">
          <path
             fill="#000000"
             stroke="#000000"
             class="dcg-svg-axis-line"
             paint-order="stroke fill markers"
             d="m 398.5,217 -11.59111,3.10583 v -6.21166 L 398.5,217 l -11.59111,3.10583"
             stroke-opacity="0.9"
             stroke-linejoin="round"
             stroke-miterlimit="10"
             stroke-width="1.5"
             stroke-dasharray="none"
             fill-opacity="0.9"
             id="path4" />
        </g>
      </g>
    </g>
    <g
       id="g7">
      <g
         id="g6">
        <path
           fill="none"
           stroke="#000000"
           class="dcg-svg-tickmark"
           paint-order="fill stroke markers"
           d=""
           stroke-opacity="0.9"
           stroke-miterlimit="2"
           stroke-width="1.5"
           stroke-dasharray="none"
           id="path5" />
      </g>
    </g>
    <g
       class="dcg-svg-axis-label"
       id="g8">
      <text
         fill="none"
         stroke="#ffffff"
         font-family="Times"
         font-size="20px"
         font-style="italic"
         font-weight="normal"
         text-decoration="normal"
         x="376.12305"
         y="232.49071"
         text-anchor="start"
         stroke-miterlimit="2"
         stroke-width="3"
         stroke-dasharray="none"
         id="text7">x</text>
      <text
         fill="#000000"
         stroke="none"
         font-family="Times"
         font-size="20px"
         font-style="italic"
         font-weight="normal"
         text-decoration="normal"
         x="376.12305"
         y="232.49071"
         text-anchor="start"
         id="text8">x</text>
    </g>
    <g
       class="dcg-svg-axis-label"
       transform="translate(188.47128,29)"
       id="g10">
      <text
         fill="none"
         stroke="#ffffff"
         font-family="Times"
         font-size="20px"
         font-style="italic"
         font-weight="normal"
         text-decoration="normal"
         x="0"
         y="0"
         text-anchor="start"
         stroke-miterlimit="2"
         stroke-width="3"
         stroke-dasharray="none"
         id="text9">y</text>
      <text
         fill="#000000"
         stroke="none"
         font-family="Times"
         font-size="20px"
         font-style="italic"
         font-weight="normal"
         text-decoration="normal"
         x="0"
         y="0"
         text-anchor="start"
         id="text10">y</text>
    </g>
  </g>
  <g
     id="expressions-844635a1"
     transform="matrix(2,0,0,2,-76.780187,14.860681)">
    <g
       id="sketch-844635a1">
      <title
         id="title10">pi / 4</title>
    </g>
    <g
       id="g15">
      <title
         id="title11">Expression 3</title>
      <path
         fill="#000000"
         stroke="none"
         paint-order="stroke fill markers"
         d=""
         fill-opacity="0.4"
         id="path11" />
      <g
         id="g12">
        <path
           fill="none"
           stroke="#000000"
           class="dcg-svg-curve"
           paint-order="fill stroke markers"
           d="m 55.646599,217.4907 v 0 l 0.11512,5.83041 0.390625,6.38201 0.585937,5.71228 0.78125,5.52232 0.976563,5.42564 1.171875,5.35824 1.367187,5.30088 1.660156,5.5518 1.855469,5.42425 2.050781,5.3144 2.343751,5.42831 2.636718,5.48357 2.929688,5.49418 3.222656,5.46941 3.515625,5.41545 3.808594,5.33647 4.199218,5.35416 4.394532,5.10317 4.492187,4.76539 4.687499,4.55089 4.88281,4.33799 4.98047,4.04848 5.07813,3.77605 5.27344,3.57983 5.37109,3.31847 5.46875,3.06499 5.5664,2.81698 5.66407,2.5724 5.76172,2.32947 5.85937,2.08662 5.95703,1.84237 6.05469,1.59538 6.05469,1.3251 6.15234,1.07719 6.15234,0.81169 6.15235,0.55059 6.15234,0.2924 6.25,0.0342 6.15235,-0.22479 6.15234,-0.48245 6.15234,-0.74265 6.15235,-1.00685 6.05468,-1.25417 6.05469,-1.52231 5.95703,-1.76789 5.85938,-2.01027 5.76172,-2.25078 5.76172,-2.53628 5.5664,-2.73697 5.46875,-2.98096 5.3711,-3.22961 5.27343,-3.48512 5.17578,-3.75021 4.98047,-3.94725 4.88282,-4.22722 4.6875,-4.43086 4.49218,-4.6341 4.39453,-4.95446 4.19922,-5.1868 4.00391,-5.43278 3.71094,-5.54618 3.32031,-5.47161 3.02734,-5.50907 2.73438,-5.51404 2.4414,-5.47854 2.14844,-5.39051 1.95313,-5.5253 1.66015,-5.34824 1.46485,-5.44196 1.26953,-5.55797 0.97656,-5.1463 0.78125,-5.08751 0.58594,-4.93769 0.39062,-4.53837 0.29297,-5.74252 0.0733,-4.65289"
           stroke-linecap="round"
           stroke-linejoin="round"
           stroke-miterlimit="10"
           stroke-width="2.5"
           stroke-dasharray="none"
           id="path12" />
      </g>
      <path
         fill="#000000"
         stroke="none"
         paint-order="stroke fill markers"
         d=""
         fill-opacity="0.4"
         id="path13" />
      <g
         id="g14">
        <path
           fill="none"
           stroke="#000000"
           class="dcg-svg-curve"
           paint-order="fill stroke markers"
           d="m 55.646599,217.4907 v 0 l 0.11512,-5.8304 0.390625,-6.38201 0.585937,-5.71229 0.78125,-5.52231 0.976563,-5.42565 1.171875,-5.35824 1.367187,-5.30087 1.660156,-5.5518 1.855469,-5.42425 2.050781,-5.3144 2.343751,-5.42831 2.636718,-5.48357 2.929688,-5.49418 3.222656,-5.46941 3.515625,-5.41545 3.808594,-5.33647 4.199218,-5.35416 4.394532,-5.10318 4.492187,-4.76539 4.687499,-4.55088 4.88281,-4.33799 4.98047,-4.04848 5.07813,-3.77605 5.27344,-3.579835 5.37109,-3.318467 5.46875,-3.064989 5.5664,-2.816982 5.66407,-2.572402 5.76172,-2.329473 5.85937,-2.086614 5.95703,-1.842371 6.05469,-1.595377 6.05469,-1.325098 6.15234,-1.077193 6.15234,-0.811696 6.15235,-0.550589 6.15234,-0.292401 6.25,-0.03425 6.15235,0.224796 6.15234,0.482448 6.15234,0.74265 6.15235,1.006844 6.05468,1.254175 6.05469,1.522313 5.95703,1.767887 5.85938,2.01027 5.76172,2.250783 5.76172,2.536271 5.5664,2.73697 5.46875,2.980967 5.3711,3.229606 5.27343,3.485123 5.17578,3.750212 4.98047,3.947252 4.88282,4.22722 4.6875,4.43086 4.49218,4.6341 4.39453,4.95445 4.19922,5.18681 4.00391,5.43278 3.71094,5.54618 3.32031,5.47161 3.02734,5.50907 2.73438,5.51404 2.4414,5.47854 2.14844,5.39051 1.95313,5.52529 1.66015,5.34825 1.46485,5.44196 1.26953,5.55796 0.97656,5.14631 0.78125,5.08751 0.58594,4.93769 0.39062,4.53837 0.29297,5.74252 0.0733,4.65288"
           stroke-linecap="round"
           stroke-linejoin="round"
           stroke-miterlimit="10"
           stroke-width="2.5"
           stroke-dasharray="none"
           id="path14" />
      </g>
    </g>
    <g
       id="g18">
      <title
         id="title15">Expression 4</title>
      <path
         fill="#c74440"
         stroke="none"
         paint-order="stroke fill markers"
         d=""
         fill-opacity="0.4"
         id="path15" />
      <path
         fill="#c74440"
         stroke="none"
         paint-order="stroke fill markers"
         d=""
         fill-opacity="0.4"
         id="path16" />
      <g
         id="g17">
        <path
           fill="none"
           stroke="#c74440"
           class="dcg-svg-curve"
           paint-order="fill stroke markers"
           d="m 219.46058,201.24352 v 0 l 1.65857,1.83285 1.56228,2.1748 1.26935,2.28394 0.87878,2.07326 0.6835,2.19909 0.39056,1.8319 0.19529,1.40486 0.13116,2.44648"
           stroke-linecap="round"
           stroke-linejoin="round"
           stroke-miterlimit="10"
           stroke-width="2.5"
           stroke-dasharray="none"
           id="path17" />
      </g>
    </g>
    <g
       id="g20">
      <title
         id="title18">Expression 5</title>
      <path
         fill="#c74440"
         stroke="none"
         paint-order="stroke fill markers"
         d=""
         fill-opacity="0.4"
         id="path18" />
      <g
         id="g19">
        <path
           fill="none"
           stroke="#c74440"
           class="dcg-svg-curve"
           paint-order="fill stroke markers"
           d="m 203.34823,217.4907 v 0 L 307.92099,112.91795"
           stroke-linecap="round"
           stroke-linejoin="round"
           stroke-miterlimit="10"
           stroke-width="2.5"
           stroke-dasharray="none"
           id="path19" />
      </g>
    </g>
    <g
       id="g22">
      <title
         id="title20">Expression 8</title>
      <path
         fill="#c74440"
         stroke="none"
         paint-order="stroke fill markers"
         d=""
         fill-opacity="0.4"
         id="path20" />
      <g
         id="g21">
        <path
           fill="none"
           stroke="#c74440"
           class="dcg-svg-curve"
           paint-order="fill stroke markers"
           d="m 203.34823,217.4907 v 0 h 147.70164"
           stroke-linecap="round"
           stroke-linejoin="round"
           stroke-miterlimit="10"
           stroke-width="2.5"
           stroke-dasharray="none"
           id="path21" />
      </g>
    </g>
  </g>
  <g
     id="labels-844635a1"
     transform="matrix(2,0,0,2,-55.727553,12.383901)">
    <g
       transform="translate(219.5,195)"
       id="g28">
      <g
         class="dcg-svg-label"
         id="g27">
        <text
           fill="none"
           stroke="#ffffff"
           font-family="'Times New Roman', Symbola, serif"
           font-size="17.71px"
           font-style="normal"
           font-weight="400"
           text-decoration="normal"
           x="2"
           y="15.46212"
           text-anchor="start"
           stroke-linecap="round"
           stroke-linejoin="round"
           stroke-miterlimit="2"
           stroke-width="3"
           stroke-dasharray="none"
           id="text22">π</text>
        <text
           fill="none"
           stroke="#ffffff"
           font-family="Symbola, 'Times New Roman', serif"
           font-size="17.71px"
           font-style="normal"
           font-weight="400"
           text-decoration="normal"
           x="10.945312"
           y="15.46212"
           text-anchor="start"
           stroke-linecap="round"
           stroke-linejoin="round"
           stroke-miterlimit="2"
           stroke-width="3"
           stroke-dasharray="none"
           id="text23">/</text>
        <text
           fill="none"
           stroke="#ffffff"
           font-family="Symbola, 'Times New Roman', serif"
           font-size="17.71px"
           font-style="normal"
           font-weight="400"
           text-decoration="normal"
           x="16.023438"
           y="15.46212"
           text-anchor="start"
           stroke-linecap="round"
           stroke-linejoin="round"
           stroke-miterlimit="2"
           stroke-width="3"
           stroke-dasharray="none"
           id="text24">4</text>
        <text
           fill="#c74440"
           stroke="none"
           font-family="'Times New Roman', Symbola, serif"
           font-size="17.71px"
           font-style="normal"
           font-weight="400"
           text-decoration="normal"
           x="2"
           y="15.46212"
           text-anchor="start"
           id="text25">π</text>
        <text
           fill="#c74440"
           stroke="none"
           font-family="Symbola, 'Times New Roman', serif"
           font-size="17.71px"
           font-style="normal"
           font-weight="400"
           text-decoration="normal"
           x="10.945312"
           y="15.46212"
           text-anchor="start"
           id="text26">/</text>
        <text
           fill="#c74440"
           stroke="none"
           font-family="Symbola, 'Times New Roman', serif"
           font-size="17.71px"
           font-style="normal"
           font-weight="400"
           text-decoration="normal"
           x="16.023438"
           y="15.46212"
           text-anchor="start"
           id="text27">4</text>
      </g>
    </g>
  </g>
  <g
     id="g29"
     transform="scale(2)" />
</svg>
