<?xml version="1.0" encoding="UTF-8" standalone="no"?>
<svg
   version="1.1"
   width="2000"
   height="1027.6073"
   id="svg66"
   sodipodi:docname="desmos-graph.svg"
   inkscape:version="1.3.2 (091e20e, 2023-11-25, custom)"
   xmlns:inkscape="http://www.inkscape.org/namespaces/inkscape"
   xmlns:sodipodi="http://sodipodi.sourceforge.net/DTD/sodipodi-0.dtd"
   xmlns="http://www.w3.org/2000/svg"
   xmlns:svg="http://www.w3.org/2000/svg">
  <sodipodi:namedview
     id="namedview66"
     pagecolor="#ffffff"
     bordercolor="#000000"
     borderopacity="0.25"
     inkscape:showpageshadow="2"
     inkscape:pageopacity="0.0"
     inkscape:pagecheckerboard="0"
     inkscape:deskcolor="#d1d1d1"
     inkscape:zoom="0.326"
     inkscape:cx="998.46626"
     inkscape:cy="1000"
     inkscape:window-width="1440"
     inkscape:window-height="890"
     inkscape:window-x="-6"
     inkscape:window-y="1073"
     inkscape:window-maximized="1"
     inkscape:current-layer="svg66" />
  <defs
     id="defs1">
    <clipPath
       clipPathUnits="userSpaceOnUse"
       id="clipPath66">
      <rect
         style="opacity:0.65;fill:#000000;stroke-width:0.5"
         id="rect67"
         width="1004.6013"
         height="516.87115"
         x="-3.0674846"
         y="-3.0674846" />
    </clipPath>
  </defs>
  <g
     transform="scale(2)"
     id="g66">
    <g
       id="background-792bcd49">
      <rect
         fill="#ffffff"
         stroke="none"
         x="0"
         y="0"
         width="1000"
         height="1000"
         class="dcg-svg-background"
         id="rect1"
         clip-path="url(#clipPath66)" />
    </g>
    <g
       id="graphpaper-792bcd49">
      <g
         id="axis-792bcd49">
        <g
           id="yaxis-792bcd49">
          <title
             id="title1">Y axis</title>
          <g
             id="g3">
            <path
               fill="none"
               stroke="#000000"
               class="dcg-svg-axis-line"
               paint-order="fill stroke markers"
               d="m 488,4 v 996"
               stroke-opacity="0.9"
               stroke-miterlimit="10"
               stroke-width="2"
               stroke-dasharray="none"
               id="path1" />
            <g
               class="dcg-svg-axis-line"
               id="g2">
              <path
                 fill="#000000"
                 stroke="#000000"
                 class="dcg-svg-axis-line"
                 paint-order="stroke fill markers"
                 d="m 488,2 4.1411,15.454813 h -8.2822 L 488,2 l 4.1411,15.454813"
                 stroke-opacity="0.9"
                 stroke-linejoin="round"
                 stroke-miterlimit="10"
                 stroke-width="2"
                 stroke-dasharray="none"
                 fill-opacity="0.9"
                 id="path2" />
            </g>
          </g>
        </g>
        <g
           id="xaxis-792bcd49">
          <title
             id="title3">X axis</title>
          <g
             id="g5">
            <path
               fill="none"
               stroke="#000000"
               class="dcg-svg-axis-line"
               paint-order="fill stroke markers"
               d="M 0,239 H 996"
               stroke-opacity="0.9"
               stroke-miterlimit="10"
               stroke-width="2"
               stroke-dasharray="none"
               id="path3" />
            <g
               class="dcg-svg-axis-line"
               id="g4">
              <path
                 fill="#000000"
                 stroke="#000000"
                 class="dcg-svg-axis-line"
                 paint-order="stroke fill markers"
                 d="m 998,239 -15.45481,4.1411 v -8.2822 L 998,239 l -15.45481,4.1411"
                 stroke-opacity="0.9"
                 stroke-linejoin="round"
                 stroke-miterlimit="10"
                 stroke-width="2"
                 stroke-dasharray="none"
                 fill-opacity="0.9"
                 id="path4" />
            </g>
          </g>
        </g>
        <g
           id="g49">
          <g
             class="dcg-svg-axis-value"
             id="g6">
            <text
               fill="none"
               stroke="#ffffff"
               font-family="Arial"
               font-size="17px"
               font-style="normal"
               font-weight="normal"
               text-decoration="normal"
               x="478.45944"
               y="257.53699"
               text-anchor="middle"
               stroke-miterlimit="2"
               stroke-width="3"
               stroke-dasharray="none"
               id="text5">0</text>
            <text
               fill="#000000"
               stroke="none"
               font-family="Arial"
               font-size="17px"
               font-style="normal"
               font-weight="normal"
               text-decoration="normal"
               x="478.45944"
               y="257.53699"
               text-anchor="middle"
               id="text6">0</text>
          </g>
          <g
             id="g7">
            <path
               fill="none"
               stroke="#000000"
               class="dcg-svg-tickmark"
               paint-order="fill stroke markers"
               d="m 51,235 v 8 m 110,-8 v 8 m 109,-8 v 8 m 109,-8 v 8 m 218,-8 v 8 m 110,-8 v 8 m 109,-8 v 8 m 109,-8 v 8 M 484,934 h 8 m -8,-69 h 8 m -8,-70 h 8 m -8,-69 h 8 m -8,-70 h 8 m -8,-69 h 8 m -8,-70 h 8 m -8,-69 h 8 m -8,-70 h 8 m -8,-69 h 8 m -8,-139 h 8 m -8,-70 h 8 m -8,-69 h 8"
               stroke-opacity="0.9"
               stroke-miterlimit="2"
               stroke-width="2"
               stroke-dasharray="none"
               id="path6" />
          </g>
          <g
             class="dcg-svg-axis-value"
             id="g8">
            <text
               fill="none"
               stroke="#ffffff"
               font-family="Arial"
               font-size="17px"
               font-style="normal"
               font-weight="normal"
               text-decoration="normal"
               x="48.632984"
               y="257.53699"
               text-anchor="middle"
               stroke-miterlimit="2"
               stroke-width="3"
               stroke-dasharray="none"
               id="text7">-2π</text>
            <text
               fill="#000000"
               stroke="none"
               font-family="Arial"
               font-size="17px"
               font-style="normal"
               font-weight="normal"
               text-decoration="normal"
               x="48.632984"
               y="257.53699"
               text-anchor="middle"
               id="text8">-2π</text>
          </g>
          <g
             class="dcg-svg-axis-value"
             id="g10">
            <text
               fill="none"
               stroke="#ffffff"
               font-family="Arial"
               font-size="17px"
               font-style="normal"
               font-weight="normal"
               text-decoration="normal"
               x="157.81378"
               y="257.53699"
               text-anchor="middle"
               stroke-miterlimit="2"
               stroke-width="3"
               stroke-dasharray="none"
               id="text9">-3π/2</text>
            <text
               fill="#000000"
               stroke="none"
               font-family="Arial"
               font-size="17px"
               font-style="normal"
               font-weight="normal"
               text-decoration="normal"
               x="157.81378"
               y="257.53699"
               text-anchor="middle"
               id="text10">-3π/2</text>
          </g>
          <g
             class="dcg-svg-axis-value"
             id="g12">
            <text
               fill="none"
               stroke="#ffffff"
               font-family="Arial"
               font-size="17px"
               font-style="normal"
               font-weight="normal"
               text-decoration="normal"
               x="266.99457"
               y="257.53699"
               text-anchor="middle"
               stroke-miterlimit="2"
               stroke-width="3"
               stroke-dasharray="none"
               id="text11">-π</text>
            <text
               fill="#000000"
               stroke="none"
               font-family="Arial"
               font-size="17px"
               font-style="normal"
               font-weight="normal"
               text-decoration="normal"
               x="266.99457"
               y="257.53699"
               text-anchor="middle"
               id="text12">-π</text>
          </g>
          <g
             class="dcg-svg-axis-value"
             id="g14">
            <text
               fill="none"
               stroke="#ffffff"
               font-family="Arial"
               font-size="17px"
               font-style="normal"
               font-weight="normal"
               text-decoration="normal"
               x="376.17535"
               y="257.53699"
               text-anchor="middle"
               stroke-miterlimit="2"
               stroke-width="3"
               stroke-dasharray="none"
               id="text13">-π/2</text>
            <text
               fill="#000000"
               stroke="none"
               font-family="Arial"
               font-size="17px"
               font-style="normal"
               font-weight="normal"
               text-decoration="normal"
               x="376.17535"
               y="257.53699"
               text-anchor="middle"
               id="text14">-π/2</text>
          </g>
          <g
             class="dcg-svg-axis-value"
             id="g16">
            <text
               fill="none"
               stroke="#ffffff"
               font-family="Arial"
               font-size="17px"
               font-style="normal"
               font-weight="normal"
               text-decoration="normal"
               x="597.36749"
               y="257.53699"
               text-anchor="middle"
               stroke-miterlimit="2"
               stroke-width="3"
               stroke-dasharray="none"
               id="text15">π/2</text>
            <text
               fill="#000000"
               stroke="none"
               font-family="Arial"
               font-size="17px"
               font-style="normal"
               font-weight="normal"
               text-decoration="normal"
               x="597.36749"
               y="257.53699"
               text-anchor="middle"
               id="text16">π/2</text>
          </g>
          <g
             class="dcg-svg-axis-value"
             id="g18">
            <text
               fill="none"
               stroke="#ffffff"
               font-family="Arial"
               font-size="17px"
               font-style="normal"
               font-weight="normal"
               text-decoration="normal"
               x="706.54834"
               y="257.53699"
               text-anchor="middle"
               stroke-miterlimit="2"
               stroke-width="3"
               stroke-dasharray="none"
               id="text17">π</text>
            <text
               fill="#000000"
               stroke="none"
               font-family="Arial"
               font-size="17px"
               font-style="normal"
               font-weight="normal"
               text-decoration="normal"
               x="706.54834"
               y="257.53699"
               text-anchor="middle"
               id="text18">π</text>
          </g>
          <g
             class="dcg-svg-axis-value"
             id="g20">
            <text
               fill="none"
               stroke="#ffffff"
               font-family="Arial"
               font-size="17px"
               font-style="normal"
               font-weight="normal"
               text-decoration="normal"
               x="815.72913"
               y="257.53699"
               text-anchor="middle"
               stroke-miterlimit="2"
               stroke-width="3"
               stroke-dasharray="none"
               id="text19">3π/2</text>
            <text
               fill="#000000"
               stroke="none"
               font-family="Arial"
               font-size="17px"
               font-style="normal"
               font-weight="normal"
               text-decoration="normal"
               x="815.72913"
               y="257.53699"
               text-anchor="middle"
               id="text20">3π/2</text>
          </g>
          <g
             class="dcg-svg-axis-value"
             id="g22">
            <text
               fill="none"
               stroke="#ffffff"
               font-family="Arial"
               font-size="17px"
               font-style="normal"
               font-weight="normal"
               text-decoration="normal"
               x="924.90991"
               y="257.53699"
               text-anchor="middle"
               stroke-miterlimit="2"
               stroke-width="3"
               stroke-dasharray="none"
               id="text21">2π</text>
            <text
               fill="#000000"
               stroke="none"
               font-family="Arial"
               font-size="17px"
               font-style="normal"
               font-weight="normal"
               text-decoration="normal"
               x="924.90991"
               y="257.53699"
               text-anchor="middle"
               id="text22">2π</text>
          </g>
          <g
             class="dcg-svg-axis-value"
             id="g24">
            <text
               fill="none"
               stroke="#ffffff"
               font-family="Arial"
               font-size="17px"
               font-style="normal"
               font-weight="normal"
               text-decoration="normal"
               x="470.90158"
               y="939.10352"
               text-anchor="middle"
               stroke-miterlimit="2"
               stroke-width="3"
               stroke-dasharray="none"
               id="text23">-10</text>
            <text
               fill="#000000"
               stroke="none"
               font-family="Arial"
               font-size="17px"
               font-style="normal"
               font-weight="normal"
               text-decoration="normal"
               x="470.90158"
               y="939.10352"
               text-anchor="middle"
               id="text24">-10</text>
          </g>
          <g
             class="dcg-svg-axis-value"
             id="g26">
            <text
               fill="none"
               stroke="#ffffff"
               font-family="Arial"
               font-size="17px"
               font-style="normal"
               font-weight="normal"
               text-decoration="normal"
               x="475.62888"
               y="869.59686"
               text-anchor="middle"
               stroke-miterlimit="2"
               stroke-width="3"
               stroke-dasharray="none"
               id="text25">-9</text>
            <text
               fill="#000000"
               stroke="none"
               font-family="Arial"
               font-size="17px"
               font-style="normal"
               font-weight="normal"
               text-decoration="normal"
               x="475.62888"
               y="869.59686"
               text-anchor="middle"
               id="text26">-9</text>
          </g>
          <g
             class="dcg-svg-axis-value"
             id="g28">
            <text
               fill="none"
               stroke="#ffffff"
               font-family="Arial"
               font-size="17px"
               font-style="normal"
               font-weight="normal"
               text-decoration="normal"
               x="475.62888"
               y="800.09021"
               text-anchor="middle"
               stroke-miterlimit="2"
               stroke-width="3"
               stroke-dasharray="none"
               id="text27">-8</text>
            <text
               fill="#000000"
               stroke="none"
               font-family="Arial"
               font-size="17px"
               font-style="normal"
               font-weight="normal"
               text-decoration="normal"
               x="475.62888"
               y="800.09021"
               text-anchor="middle"
               id="text28">-8</text>
          </g>
          <g
             class="dcg-svg-axis-value"
             id="g30">
            <text
               fill="none"
               stroke="#ffffff"
               font-family="Arial"
               font-size="17px"
               font-style="normal"
               font-weight="normal"
               text-decoration="normal"
               x="475.62888"
               y="730.58356"
               text-anchor="middle"
               stroke-miterlimit="2"
               stroke-width="3"
               stroke-dasharray="none"
               id="text29">-7</text>
            <text
               fill="#000000"
               stroke="none"
               font-family="Arial"
               font-size="17px"
               font-style="normal"
               font-weight="normal"
               text-decoration="normal"
               x="475.62888"
               y="730.58356"
               text-anchor="middle"
               id="text30">-7</text>
          </g>
          <g
             class="dcg-svg-axis-value"
             id="g32">
            <text
               fill="none"
               stroke="#ffffff"
               font-family="Arial"
               font-size="17px"
               font-style="normal"
               font-weight="normal"
               text-decoration="normal"
               x="475.62888"
               y="661.0769"
               text-anchor="middle"
               stroke-miterlimit="2"
               stroke-width="3"
               stroke-dasharray="none"
               id="text31">-6</text>
            <text
               fill="#000000"
               stroke="none"
               font-family="Arial"
               font-size="17px"
               font-style="normal"
               font-weight="normal"
               text-decoration="normal"
               x="475.62888"
               y="661.0769"
               text-anchor="middle"
               id="text32">-6</text>
          </g>
          <g
             class="dcg-svg-axis-value"
             id="g34">
            <text
               fill="none"
               stroke="#ffffff"
               font-family="Arial"
               font-size="17px"
               font-style="normal"
               font-weight="normal"
               text-decoration="normal"
               x="475.62888"
               y="591.57025"
               text-anchor="middle"
               stroke-miterlimit="2"
               stroke-width="3"
               stroke-dasharray="none"
               id="text33">-5</text>
            <text
               fill="#000000"
               stroke="none"
               font-family="Arial"
               font-size="17px"
               font-style="normal"
               font-weight="normal"
               text-decoration="normal"
               x="475.62888"
               y="591.57025"
               text-anchor="middle"
               id="text34">-5</text>
          </g>
          <g
             class="dcg-svg-axis-value"
             id="g36">
            <text
               fill="none"
               stroke="#ffffff"
               font-family="Arial"
               font-size="17px"
               font-style="normal"
               font-weight="normal"
               text-decoration="normal"
               x="475.62888"
               y="522.0636"
               text-anchor="middle"
               stroke-miterlimit="2"
               stroke-width="3"
               stroke-dasharray="none"
               id="text35">-4</text>
            <text
               fill="#000000"
               stroke="none"
               font-family="Arial"
               font-size="17px"
               font-style="normal"
               font-weight="normal"
               text-decoration="normal"
               x="475.62888"
               y="522.0636"
               text-anchor="middle"
               id="text36">-4</text>
          </g>
          <g
             class="dcg-svg-axis-value"
             id="g38">
            <text
               fill="none"
               stroke="#ffffff"
               font-family="Arial"
               font-size="17px"
               font-style="normal"
               font-weight="normal"
               text-decoration="normal"
               x="475.62888"
               y="452.55695"
               text-anchor="middle"
               stroke-miterlimit="2"
               stroke-width="3"
               stroke-dasharray="none"
               id="text37">-3</text>
            <text
               fill="#000000"
               stroke="none"
               font-family="Arial"
               font-size="17px"
               font-style="normal"
               font-weight="normal"
               text-decoration="normal"
               x="475.62888"
               y="452.55695"
               text-anchor="middle"
               id="text38">-3</text>
          </g>
          <g
             class="dcg-svg-axis-value"
             id="g40">
            <text
               fill="none"
               stroke="#ffffff"
               font-family="Arial"
               font-size="17px"
               font-style="normal"
               font-weight="normal"
               text-decoration="normal"
               x="475.62888"
               y="383.05029"
               text-anchor="middle"
               stroke-miterlimit="2"
               stroke-width="3"
               stroke-dasharray="none"
               id="text39">-2</text>
            <text
               fill="#000000"
               stroke="none"
               font-family="Arial"
               font-size="17px"
               font-style="normal"
               font-weight="normal"
               text-decoration="normal"
               x="475.62888"
               y="383.05029"
               text-anchor="middle"
               id="text40">-2</text>
          </g>
          <g
             class="dcg-svg-axis-value"
             id="g42">
            <text
               fill="none"
               stroke="#ffffff"
               font-family="Arial"
               font-size="17px"
               font-style="normal"
               font-weight="normal"
               text-decoration="normal"
               x="475.62888"
               y="313.54364"
               text-anchor="middle"
               stroke-miterlimit="2"
               stroke-width="3"
               stroke-dasharray="none"
               id="text41">-1</text>
            <text
               fill="#000000"
               stroke="none"
               font-family="Arial"
               font-size="17px"
               font-style="normal"
               font-weight="normal"
               text-decoration="normal"
               x="475.62888"
               y="313.54364"
               text-anchor="middle"
               id="text42">-1</text>
          </g>
          <g
             class="dcg-svg-axis-value"
             id="g44">
            <text
               fill="none"
               stroke="#ffffff"
               font-family="Arial"
               font-size="17px"
               font-style="normal"
               font-weight="normal"
               text-decoration="normal"
               x="478.45944"
               y="174.53035"
               text-anchor="middle"
               stroke-miterlimit="2"
               stroke-width="3"
               stroke-dasharray="none"
               id="text43">1</text>
            <text
               fill="#000000"
               stroke="none"
               font-family="Arial"
               font-size="17px"
               font-style="normal"
               font-weight="normal"
               text-decoration="normal"
               x="478.45944"
               y="174.53035"
               text-anchor="middle"
               id="text44">1</text>
          </g>
          <g
             class="dcg-svg-axis-value"
             id="g46">
            <text
               fill="none"
               stroke="#ffffff"
               font-family="Arial"
               font-size="17px"
               font-style="normal"
               font-weight="normal"
               text-decoration="normal"
               x="478.45944"
               y="105.0237"
               text-anchor="middle"
               stroke-miterlimit="2"
               stroke-width="3"
               stroke-dasharray="none"
               id="text45">2</text>
            <text
               fill="#000000"
               stroke="none"
               font-family="Arial"
               font-size="17px"
               font-style="normal"
               font-weight="normal"
               text-decoration="normal"
               x="478.45944"
               y="105.0237"
               text-anchor="middle"
               id="text46">2</text>
          </g>
          <g
             class="dcg-svg-axis-value"
             id="g48">
            <text
               fill="none"
               stroke="#ffffff"
               font-family="Arial"
               font-size="17px"
               font-style="normal"
               font-weight="normal"
               text-decoration="normal"
               x="478.45944"
               y="35.517044"
               text-anchor="middle"
               stroke-miterlimit="2"
               stroke-width="3"
               stroke-dasharray="none"
               id="text47">3</text>
            <text
               fill="#000000"
               stroke="none"
               font-family="Arial"
               font-size="17px"
               font-style="normal"
               font-weight="normal"
               text-decoration="normal"
               x="478.45944"
               y="35.517044"
               text-anchor="middle"
               id="text48">3</text>
          </g>
        </g>
      </g>
    </g>
    <g
       id="expressions-792bcd49">
      <g
         id="sketch-792bcd49">
        <title
           id="title49">Expression 1</title>
        <path
           fill="#c74440"
           stroke="none"
           paint-order="stroke fill markers"
           d=""
           fill-opacity="0.4"
           id="path49" />
        <g
           id="g50">
          <path
             fill="none"
             stroke="#c74440"
             class="dcg-svg-curve"
             paint-order="fill stroke markers"
             d="m 0,342.44809 v 0 l 4.1503906,7.40916 3.6621094,7.85735 3.417969,8.75527 3.173828,9.69436 2.929687,10.65515 2.929688,12.76443 2.685547,14.10627 2.441406,15.4355 2.441406,18.71752 2.197266,20.57735 2.197265,25.36746 1.953125,28.04602 1.953125,35.2787 1.708985,39.24699 1.708984,50.59154 1.464844,56.61289 1.464844,75.15717 1.464843,104.54048 1.209741,123.2383"
             stroke-linecap="round"
             stroke-linejoin="round"
             stroke-miterlimit="10"
             stroke-width="3.5"
             stroke-dasharray="none"
             id="path50" />
        </g>
        <g
           id="g51">
          <path
             fill="none"
             stroke="#c74440"
             class="dcg-svg-curve"
             paint-order="fill stroke markers"
             d="m 71.42871,-6.5 v 0 l 1.569337,17.937469 2.441406,22.422104 2.441406,18.196053 2.685547,16.402362 2.929688,14.66011 2.929687,12.108468 3.173828,10.917294 3.417969,9.78089 3.66211,8.71655 3.906252,7.73133 4.15039,6.82548 4.63867,6.29621 5.12695,5.66997 5.12696,4.59531 5.37109,3.88583 5.61523,3.22823 5.85938,2.60771 6.10352,2.00913 6.34765,1.41616 6.5918,0.81018 6.83594,0.16849 6.59179,-0.47763 6.5918,-1.12794 6.34766,-1.75009 6.10351,-2.37201 5.61524,-2.87151 5.37109,-3.47676 5.12695,-4.11901 4.88281,-4.81025 4.63868,-5.5622 4.63867,-6.77839 4.15039,-7.3753 3.66211,-7.81933 3.41797,-8.71018 3.17383,-9.64099 2.92968,-10.592237 2.92969,-12.683114 2.68555,-14.008795 2.4414,-15.319638 2.44141,-18.56407 2.19727,-20.39225 L 249.85996,-6.5"
             stroke-linecap="round"
             stroke-linejoin="round"
             stroke-miterlimit="10"
             stroke-width="3.5"
             stroke-dasharray="none"
             id="path51" />
        </g>
        <g
           id="g52">
          <path
             fill="none"
             stroke="#c74440"
             class="dcg-svg-curve"
             paint-order="fill stroke markers"
             d="m 276.18898,1006.5 v 0 l 0.66649,-78.72371 1.46484,-118.24867 1.46485,-83.39386 1.70898,-70.75175 1.70898,-52.60102 1.95313,-45.67598 1.95312,-35.27707 2.19727,-31.15024 2.19727,-24.75733 2.4414,-22.13414 2.68555,-19.59762 2.68555,-15.93805 2.92968,-14.27975 2.92969,-11.81885 3.17383,-10.67506 3.41797,-9.57886 3.66211,-8.54818 3.90625,-7.59082 4.15039,-6.70791 4.63867,-6.19252 5.12695,-5.57965 5.12696,-4.52315 5.37109,-3.8242 5.61523,-3.17479 5.85938,-2.56049 6.10351,-1.96643 6.34766,-1.37646 6.5918,-0.77197 6.83594,-0.13016 6.59179,0.51505 6.5918,1.1676 6.34766,1.79222 6.10351,2.41828 5.61524,2.92133 5.37109,3.53357 5.12695,4.18478 4.88281,4.88736 4.63868,5.65348 4.63867,6.8942 4.15039,7.50811 3.66211,7.96862 3.41797,8.88734 3.17383,9.85088 2.92968,10.83992 2.92969,13.00362 2.68555,14.39347 2.4414,15.77754 2.44141,19.17146 2.19727,21.12627 2.19726,26.11647 1.95313,28.9676 1.95312,36.57822 1.70899,40.87758 1.70898,52.9831 1.46484,59.67942 1.46485,79.87234 1.2207,90.5511 1.15717,119.42776"
             stroke-linecap="round"
             stroke-linejoin="round"
             stroke-miterlimit="10"
             stroke-width="3.5"
             stroke-dasharray="none"
             id="path52" />
        </g>
        <g
           id="g53">
          <path
             fill="none"
             stroke="#c74440"
             class="dcg-svg-curve"
             paint-order="fill stroke markers"
             d="m 508.14944,-6.5 v 0 l 1.61618,18.39148 2.44141,22.332887 2.44141,18.130365 2.68554,16.348291 2.92969,14.615891 2.92969,12.074849 3.17383,10.889207 3.41797,9.7575 3.66211,8.69708 3.90625,7.71509 4.15039,6.8119 4.63867,6.28426 5.12695,5.65956 5.12695,4.587 5.3711,3.87874 5.61523,3.22209 5.85938,2.60228 6.10351,2.00423 6.34766,1.41161 6.5918,0.80581 6.83593,0.1641 6.5918,-0.4819 6.5918,-1.13247 6.34765,-1.75489 6.10352,-2.37727 5.61523,-2.87718 5.3711,-3.48322 5.12695,-4.12648 4.88281,-4.819 4.63867,-5.57254 4.63868,-6.79151 4.15039,-7.39033 3.66211,-7.8362 3.41797,-8.7302 3.17382,-9.66467 2.92969,-10.620141 2.92969,-12.719179 2.68555,-14.052017 2.4414,-15.371001 2.44141,-18.632072 2.19726,-20.47425 1.5223,-17.4777"
             stroke-linecap="round"
             stroke-linejoin="round"
             stroke-miterlimit="10"
             stroke-width="3.5"
             stroke-dasharray="none"
             id="path53" />
        </g>
        <g
           id="g54">
          <path
             fill="none"
             stroke="#c74440"
             class="dcg-svg-curve"
             paint-order="fill stroke markers"
             d="m 712.91025,1006.5 v 0 l 0.7128,-83.02955 1.46484,-116.8926 1.46484,-82.58962 1.70899,-70.1683 1.70898,-52.22618 1.95313,-45.39131 1.95312,-35.08321 2.19727,-30.9979 2.19726,-24.64885 2.44141,-22.0466 2.68555,-19.52755 2.68554,-15.88618 2.92969,-14.23717 2.92969,-11.78637 3.17383,-10.64785 3.41797,-9.55614 3.66211,-8.5292 3.90625,-7.57498 4.39453,-7.05149 4.63867,-6.11683 5.12695,-5.51358 5.12695,-4.47031 5.3711,-3.77897 5.61523,-3.1355 5.85938,-2.52572 6.10351,-1.93495 6.34766,-1.34711 6.5918,-0.74365 6.83593,-0.1017 6.5918,0.5429 6.5918,1.19717 6.34765,1.82373 6.10352,2.45293 5.61523,2.95872 5.3711,3.57627 5.12695,4.2343 4.88281,4.94549 4.63868,5.72243 4.63867,6.98183 4.15039,7.60879 3.66211,8.082 3.41797,9.02216 3.17382,10.01095 2.92969,11.02926 2.92969,13.24927 2.68555,14.68922 2.4414,16.13071 2.44141,19.64172 2.19726,21.69703 2.19727,26.89866 1.95312,29.93482 1.95313,37.95026 1.70898,42.61128 1.70899,55.5476 1.46484,63.00127 1.46485,85.04502 1.2207,97.43612 0.83082,93.51746"
             stroke-linecap="round"
             stroke-linejoin="round"
             stroke-miterlimit="10"
             stroke-width="3.5"
             stroke-dasharray="none"
             id="path54" />
        </g>
        <g
           id="g55">
          <path
             fill="none"
             stroke="#c74440"
             class="dcg-svg-curve"
             paint-order="fill stroke markers"
             d="m 944.86996,-6.5 v 0 l 1.66324,18.843595 2.44141,22.24419 2.68555,19.685673 2.68554,16.00317 2.92969,14.33318 2.92969,11.859601 3.17383,10.709181 3.41796,9.60735 3.66211,8.57195 3.90625,7.61068 4.15039,6.72454 4.63868,6.2072 5.12695,5.59245 5.12695,4.53338 5.3711,3.83295 1.2207,0.75829"
             stroke-linecap="round"
             stroke-linejoin="round"
             stroke-miterlimit="10"
             stroke-width="3.5"
             stroke-dasharray="none"
             id="path55" />
        </g>
      </g>
      <g
         id="g58">
        <title
           id="title55">Expression 2</title>
        <path
           fill="#000000"
           stroke="none"
           paint-order="stroke fill markers"
           d=""
           fill-opacity="0.4"
           id="path56" />
        <g
           id="g57">
          <path
             fill="none"
             stroke="#000000"
             class="dcg-svg-curve"
             paint-order="fill stroke markers"
             d="m 706.54831,1000 v -6.16 m 0,-3.92 v -6.16 m 0,-3.92 v -6.16 m 0,-3.92 v -6.16 m 0,-3.92 v -6.16 m 0,-3.92 v -6.16 m 0,-3.92 v -6.16 m 0,-3.92 v -6.16 m 0,-3.92 v -6.16 m 0,-3.92 v -6.16 m 0,-3.92 v -6.16 m 0,-3.92 v -6.16 m 0,-3.92 v -6.16 m 0,-3.92 v -6.16 m 0,-3.92 v -6.16 m 0,-3.92 v -6.16 m 0,-3.92 v -6.16 m 0,-3.92 v -6.16 m 0,-3.92 v -6.16 m 0,-3.92 v -6.16 m 0,-3.92 v -6.16 m 0,-3.92 v -6.16 m 0,-3.92 v -6.16 m 0,-3.92 V 762 m 0,-3.92 v -6.16 m 0,-3.92 v -6.16 m 0,-3.92 v -6.16 m 0,-3.92 v -6.16 m 0,-3.92 v -6.16 m 0,-3.92 v -6.16 m 0,-3.92 v -6.16 m 0,-3.92 v -6.16 m 0,-3.92 v -6.16 m 0,-3.92 v -6.16 m 0,-3.92 v -6.16 m 0,-3.92 v -6.16 m 0,-3.92 v -6.16 m 0,-3.92 v -6.16 m 0,-3.92 v -6.16 m 0,-3.92 v -6.16 m 0,-3.92 v -6.16 m 0,-3.92 v -6.16 m 0,-3.92 v -6.16 m 0,-3.92 v -6.16 m 0,-3.92 v -6.16 m 0,-3.92 v -6.16 m 0,-3.92 v -6.16 m 0,-3.92 v -6.16 m 0,-3.92 V 510 m 0,-3.92 v -6.16 m 0,-3.92 v -6.16 m 0,-3.92 v -6.16 m 0,-3.92 v -6.16 m 0,-3.92 v -6.16 m 0,-3.92 v -6.16 m 0,-3.92 v -6.16 m 0,-3.92 v -6.16 m 0,-3.92 v -6.16 m 0,-3.92 v -6.16 m 0,-3.92 v -6.16 m 0,-3.92 v -6.16 m 0,-3.92 v -6.16 m 0,-3.92 v -6.16 m 0,-3.92 v -6.16 m 0,-3.92 v -6.16 m 0,-3.92 v -6.16 m 0,-3.92 v -6.16 m 0,-3.92 v -6.16 m 0,-3.92 v -6.16 m 0,-3.92 v -6.16 m 0,-3.92 v -6.16 m 0,-3.92 v -6.16 m 0,-3.92 v -6.16 m 0,-3.92 V 258 m 0,-3.92 v -6.16 m 0,-3.92 v -6.16 m 0,-3.92 v -6.16 m 0,-3.92 v -6.16 m 0,-3.92 v -6.16 m 0,-3.92 v -6.16 m 0,-3.92 v -6.16 m 0,-3.92 v -6.16 m 0,-3.92 v -6.16 m 0,-3.92 v -6.16 m 0,-3.92 v -6.16 m 0,-3.92 v -6.16 m 0,-3.92 v -6.16 m 0,-3.92 v -6.16 m 0,-3.92 v -6.16 m 0,-3.92 v -6.16 m 0,-3.92 v -6.16 m 0,-3.92 v -6.16 m 0,-3.92 v -6.16 m 0,-3.92 V 56.4 m 0,-3.92 v -6.16 m 0,-3.92 v -6.16 m 0,-3.92 v -6.16 m 0,-3.92 v -6.16 m 0,-3.92 V 6 m 0,-3.92 V 0"
             stroke-linecap="round"
             stroke-linejoin="round"
             stroke-miterlimit="10"
             stroke-width="1.4"
             stroke-dasharray="none"
             id="path57" />
        </g>
      </g>
      <g
         id="g60">
        <title
           id="title58">Expression 3</title>
        <path
           fill="#000000"
           stroke="none"
           paint-order="stroke fill markers"
           d=""
           fill-opacity="0.4"
           id="path58" />
        <g
           id="g59">
          <path
             fill="none"
             stroke="#000000"
             class="dcg-svg-curve"
             paint-order="fill stroke markers"
             d="m 924.9099,1000 v -6.16 m 0,-3.92 v -6.16 m 0,-3.92 v -6.16 m 0,-3.92 v -6.16 m 0,-3.92 v -6.16 m 0,-3.92 v -6.16 m 0,-3.92 v -6.16 m 0,-3.92 v -6.16 m 0,-3.92 v -6.16 m 0,-3.92 v -6.16 m 0,-3.92 v -6.16 m 0,-3.92 v -6.16 m 0,-3.92 v -6.16 m 0,-3.92 v -6.16 m 0,-3.92 v -6.16 m 0,-3.92 v -6.16 m 0,-3.92 v -6.16 m 0,-3.92 v -6.16 m 0,-3.92 v -6.16 m 0,-3.92 v -6.16 m 0,-3.92 v -6.16 m 0,-3.92 v -6.16 m 0,-3.92 v -6.16 m 0,-3.92 V 762 m 0,-3.92 v -6.16 m 0,-3.92 v -6.16 m 0,-3.92 v -6.16 m 0,-3.92 v -6.16 m 0,-3.92 v -6.16 m 0,-3.92 v -6.16 m 0,-3.92 v -6.16 m 0,-3.92 v -6.16 m 0,-3.92 v -6.16 m 0,-3.92 v -6.16 m 0,-3.92 v -6.16 m 0,-3.92 v -6.16 m 0,-3.92 v -6.16 m 0,-3.92 v -6.16 m 0,-3.92 v -6.16 m 0,-3.92 v -6.16 m 0,-3.92 v -6.16 m 0,-3.92 v -6.16 m 0,-3.92 v -6.16 m 0,-3.92 v -6.16 m 0,-3.92 v -6.16 m 0,-3.92 v -6.16 m 0,-3.92 v -6.16 m 0,-3.92 v -6.16 m 0,-3.92 V 510 m 0,-3.92 v -6.16 m 0,-3.92 v -6.16 m 0,-3.92 v -6.16 m 0,-3.92 v -6.16 m 0,-3.92 v -6.16 m 0,-3.92 v -6.16 m 0,-3.92 v -6.16 m 0,-3.92 v -6.16 m 0,-3.92 v -6.16 m 0,-3.92 v -6.16 m 0,-3.92 v -6.16 m 0,-3.92 v -6.16 m 0,-3.92 v -6.16 m 0,-3.92 v -6.16 m 0,-3.92 v -6.16 m 0,-3.92 v -6.16 m 0,-3.92 v -6.16 m 0,-3.92 v -6.16 m 0,-3.92 v -6.16 m 0,-3.92 v -6.16 m 0,-3.92 v -6.16 m 0,-3.92 v -6.16 m 0,-3.92 v -6.16 m 0,-3.92 v -6.16 m 0,-3.92 V 258 m 0,-3.92 v -6.16 m 0,-3.92 v -6.16 m 0,-3.92 v -6.16 m 0,-3.92 v -6.16 m 0,-3.92 v -6.16 m 0,-3.92 v -6.16 m 0,-3.92 v -6.16 m 0,-3.92 v -6.16 m 0,-3.92 v -6.16 m 0,-3.92 v -6.16 m 0,-3.92 v -6.16 m 0,-3.92 v -6.16 m 0,-3.92 v -6.16 m 0,-3.92 v -6.16 m 0,-3.92 v -6.16 m 0,-3.92 v -6.16 m 0,-3.92 v -6.16 m 0,-3.92 v -6.16 m 0,-3.92 v -6.16 m 0,-3.92 V 56.4 m 0,-3.92 v -6.16 m 0,-3.92 v -6.16 m 0,-3.92 v -6.16 m 0,-3.92 v -6.16 m 0,-3.92 V 6 m 0,-3.92 V 0"
             stroke-linecap="round"
             stroke-linejoin="round"
             stroke-miterlimit="10"
             stroke-width="1.4"
             stroke-dasharray="none"
             id="path59" />
        </g>
      </g>
      <g
         id="g62">
        <title
           id="title60">Expression 5</title>
        <path
           fill="#000000"
           stroke="none"
           paint-order="stroke fill markers"
           d=""
           fill-opacity="0.4"
           id="path60" />
        <g
           id="g61">
          <path
             fill="none"
             stroke="#000000"
             class="dcg-svg-curve"
             paint-order="fill stroke markers"
             d="m 269.82514,1000 v -6.16 m 0,-3.92 v -6.16 m 0,-3.92 v -6.16 m 0,-3.92 v -6.16 m 0,-3.92 v -6.16 m 0,-3.92 v -6.16 m 0,-3.92 v -6.16 m 0,-3.92 v -6.16 m 0,-3.92 v -6.16 m 0,-3.92 v -6.16 m 0,-3.92 v -6.16 m 0,-3.92 v -6.16 m 0,-3.92 v -6.16 m 0,-3.92 v -6.16 m 0,-3.92 v -6.16 m 0,-3.92 v -6.16 m 0,-3.92 v -6.16 m 0,-3.92 v -6.16 m 0,-3.92 v -6.16 m 0,-3.92 v -6.16 m 0,-3.92 v -6.16 m 0,-3.92 v -6.16 m 0,-3.92 v -6.16 m 0,-3.92 V 762 m 0,-3.92 v -6.16 m 0,-3.92 v -6.16 m 0,-3.92 v -6.16 m 0,-3.92 v -6.16 m 0,-3.92 v -6.16 m 0,-3.92 v -6.16 m 0,-3.92 v -6.16 m 0,-3.92 v -6.16 m 0,-3.92 v -6.16 m 0,-3.92 v -6.16 m 0,-3.92 v -6.16 m 0,-3.92 v -6.16 m 0,-3.92 v -6.16 m 0,-3.92 v -6.16 m 0,-3.92 v -6.16 m 0,-3.92 v -6.16 m 0,-3.92 v -6.16 m 0,-3.92 v -6.16 m 0,-3.92 v -6.16 m 0,-3.92 v -6.16 m 0,-3.92 v -6.16 m 0,-3.92 v -6.16 m 0,-3.92 v -6.16 m 0,-3.92 v -6.16 m 0,-3.92 V 510 m 0,-3.92 v -6.16 m 0,-3.92 v -6.16 m 0,-3.92 v -6.16 m 0,-3.92 v -6.16 m 0,-3.92 v -6.16 m 0,-3.92 v -6.16 m 0,-3.92 v -6.16 m 0,-3.92 v -6.16 m 0,-3.92 v -6.16 m 0,-3.92 v -6.16 m 0,-3.92 v -6.16 m 0,-3.92 v -6.16 m 0,-3.92 v -6.16 m 0,-3.92 v -6.16 m 0,-3.92 v -6.16 m 0,-3.92 v -6.16 m 0,-3.92 v -6.16 m 0,-3.92 v -6.16 m 0,-3.92 v -6.16 m 0,-3.92 v -6.16 m 0,-3.92 v -6.16 m 0,-3.92 v -6.16 m 0,-3.92 v -6.16 m 0,-3.92 v -6.16 m 0,-3.92 V 258 m 0,-3.92 v -6.16 m 0,-3.92 v -6.16 m 0,-3.92 v -6.16 m 0,-3.92 v -6.16 m 0,-3.92 v -6.16 m 0,-3.92 v -6.16 m 0,-3.92 v -6.16 m 0,-3.92 v -6.16 m 0,-3.92 v -6.16 m 0,-3.92 v -6.16 m 0,-3.92 v -6.16 m 0,-3.92 v -6.16 m 0,-3.92 v -6.16 m 0,-3.92 v -6.16 m 0,-3.92 v -6.16 m 0,-3.92 v -6.16 m 0,-3.92 v -6.16 m 0,-3.92 v -6.16 m 0,-3.92 v -6.16 m 0,-3.92 V 56.4 m 0,-3.92 v -6.16 m 0,-3.92 v -6.16 m 0,-3.92 v -6.16 m 0,-3.92 v -6.16 m 0,-3.92 V 6 m 0,-3.92 V 0"
             stroke-linecap="round"
             stroke-linejoin="round"
             stroke-miterlimit="10"
             stroke-width="1.4"
             stroke-dasharray="none"
             id="path61" />
        </g>
      </g>
      <g
         id="g64">
        <title
           id="title62">Expression 6</title>
        <path
           fill="#000000"
           stroke="none"
           paint-order="stroke fill markers"
           d=""
           fill-opacity="0.4"
           id="path62" />
        <g
           id="g63">
          <path
             fill="none"
             stroke="#000000"
             class="dcg-svg-curve"
             paint-order="fill stroke markers"
             d="m 51.463551,1000 v -6.16 m 0,-3.92 v -6.16 m 0,-3.92 v -6.16 m 0,-3.92 v -6.16 m 0,-3.92 v -6.16 m 0,-3.92 v -6.16 m 0,-3.92 v -6.16 m 0,-3.92 v -6.16 m 0,-3.92 v -6.16 m 0,-3.92 v -6.16 m 0,-3.92 v -6.16 m 0,-3.92 v -6.16 m 0,-3.92 v -6.16 m 0,-3.92 v -6.16 m 0,-3.92 v -6.16 m 0,-3.92 v -6.16 m 0,-3.92 v -6.16 m 0,-3.92 v -6.16 m 0,-3.92 v -6.16 m 0,-3.92 v -6.16 m 0,-3.92 v -6.16 m 0,-3.92 v -6.16 m 0,-3.92 v -6.16 m 0,-3.92 V 762 m 0,-3.92 v -6.16 m 0,-3.92 v -6.16 m 0,-3.92 v -6.16 m 0,-3.92 v -6.16 m 0,-3.92 v -6.16 m 0,-3.92 v -6.16 m 0,-3.92 v -6.16 m 0,-3.92 v -6.16 m 0,-3.92 v -6.16 m 0,-3.92 v -6.16 m 0,-3.92 v -6.16 m 0,-3.92 v -6.16 m 0,-3.92 v -6.16 m 0,-3.92 v -6.16 m 0,-3.92 v -6.16 m 0,-3.92 v -6.16 m 0,-3.92 v -6.16 m 0,-3.92 v -6.16 m 0,-3.92 v -6.16 m 0,-3.92 v -6.16 m 0,-3.92 v -6.16 m 0,-3.92 v -6.16 m 0,-3.92 v -6.16 m 0,-3.92 v -6.16 m 0,-3.92 V 510 m 0,-3.92 v -6.16 m 0,-3.92 v -6.16 m 0,-3.92 v -6.16 m 0,-3.92 v -6.16 m 0,-3.92 v -6.16 m 0,-3.92 v -6.16 m 0,-3.92 v -6.16 m 0,-3.92 v -6.16 m 0,-3.92 v -6.16 m 0,-3.92 v -6.16 m 0,-3.92 v -6.16 m 0,-3.92 v -6.16 m 0,-3.92 v -6.16 m 0,-3.92 v -6.16 m 0,-3.92 v -6.16 m 0,-3.92 v -6.16 m 0,-3.92 v -6.16 m 0,-3.92 v -6.16 m 0,-3.92 v -6.16 m 0,-3.92 v -6.16 m 0,-3.92 v -6.16 m 0,-3.92 v -6.16 m 0,-3.92 v -6.16 m 0,-3.92 v -6.16 m 0,-3.92 V 258 m 0,-3.92 v -6.16 m 0,-3.92 v -6.16 m 0,-3.92 v -6.16 m 0,-3.92 v -6.16 m 0,-3.92 v -6.16 m 0,-3.92 v -6.16 m 0,-3.92 v -6.16 m 0,-3.92 v -6.16 m 0,-3.92 v -6.16 m 0,-3.92 v -6.16 m 0,-3.92 v -6.16 m 0,-3.92 v -6.16 m 0,-3.92 v -6.16 m 0,-3.92 v -6.16 m 0,-3.92 v -6.16 m 0,-3.92 v -6.16 m 0,-3.92 v -6.16 m 0,-3.92 v -6.16 m 0,-3.92 v -6.16 m 0,-3.92 V 56.4 m 0,-3.92 v -6.16 m 0,-3.92 v -6.16 m 0,-3.92 v -6.16 m 0,-3.92 v -6.16 m 0,-3.92 V 6 m 0,-3.92 V 0"
             stroke-linecap="round"
             stroke-linejoin="round"
             stroke-miterlimit="10"
             stroke-width="1.4"
             stroke-dasharray="none"
             id="path63" />
        </g>
      </g>
    </g>
    <g
       id="labels-792bcd49" />
    <g
       id="g65" />
  </g>
</svg>
