<?xml version="1.0" encoding="UTF-8" standalone="no"?>
<svg
   version="1.1"
   width="2000"
   height="969.32513"
   id="svg66"
   sodipodi:docname="trig2tan.svg"
   inkscape:version="1.3.2 (091e20e, 2023-11-25, custom)"
   xmlns:inkscape="http://www.inkscape.org/namespaces/inkscape"
   xmlns:sodipodi="http://sodipodi.sourceforge.net/DTD/sodipodi-0.dtd"
   xmlns="http://www.w3.org/2000/svg"
   xmlns:svg="http://www.w3.org/2000/svg">
  <sodipodi:namedview
     id="namedview66"
     pagecolor="#ffffff"
     bordercolor="#000000"
     borderopacity="0.25"
     inkscape:showpageshadow="2"
     inkscape:pageopacity="0.0"
     inkscape:pagecheckerboard="0"
     inkscape:deskcolor="#d1d1d1"
     inkscape:zoom="0.326"
     inkscape:cx="998.46626"
     inkscape:cy="1000"
     inkscape:window-width="1440"
     inkscape:window-height="890"
     inkscape:window-x="-6"
     inkscape:window-y="1073"
     inkscape:window-maximized="1"
     inkscape:current-layer="svg66" />
  <defs
     id="defs1">
    <clipPath
       clipPathUnits="userSpaceOnUse"
       id="clipPath66">
      <rect
         style="opacity:0.65;fill:#000000;stroke-width:0.5"
         id="rect67"
         width="1004.6013"
         height="484.66257"
         x="0"
         y="0" />
    </clipPath>
  </defs>
  <g
     transform="scale(2)"
     id="g66">
    <g
       id="background-d05fae78">
      <rect
         fill="#ffffff"
         stroke="none"
         x="0"
         y="0"
         width="1000"
         height="1000"
         class="dcg-svg-background"
         id="rect1"
         clip-path="url(#clipPath66)" />
    </g>
    <g
       id="graphpaper-d05fae78">
      <g
         id="axis-d05fae78">
        <g
           id="yaxis-d05fae78">
          <title
             id="title1">Y axis</title>
          <g
             id="g3">
            <path
               fill="none"
               stroke="#000000"
               class="dcg-svg-axis-line"
               paint-order="fill stroke markers"
               d="m 488,4 v 996"
               stroke-opacity="0.9"
               stroke-miterlimit="10"
               stroke-width="2"
               stroke-dasharray="none"
               id="path1" />
            <g
               class="dcg-svg-axis-line"
               id="g2">
              <path
                 fill="#000000"
                 stroke="#000000"
                 class="dcg-svg-axis-line"
                 paint-order="stroke fill markers"
                 d="m 488,2 4.1411,15.454813 h -8.2822 L 488,2 l 4.1411,15.454813"
                 stroke-opacity="0.9"
                 stroke-linejoin="round"
                 stroke-miterlimit="10"
                 stroke-width="2"
                 stroke-dasharray="none"
                 fill-opacity="0.9"
                 id="path2" />
            </g>
          </g>
        </g>
        <g
           id="xaxis-d05fae78">
          <title
             id="title3">X axis</title>
          <g
             id="g5">
            <path
               fill="none"
               stroke="#000000"
               class="dcg-svg-axis-line"
               paint-order="fill stroke markers"
               d="M 0,239 H 996"
               stroke-opacity="0.9"
               stroke-miterlimit="10"
               stroke-width="2"
               stroke-dasharray="none"
               id="path3" />
            <g
               class="dcg-svg-axis-line"
               id="g4">
              <path
                 fill="#000000"
                 stroke="#000000"
                 class="dcg-svg-axis-line"
                 paint-order="stroke fill markers"
                 d="m 998,239 -15.45481,4.1411 v -8.2822 L 998,239 l -15.45481,4.1411"
                 stroke-opacity="0.9"
                 stroke-linejoin="round"
                 stroke-miterlimit="10"
                 stroke-width="2"
                 stroke-dasharray="none"
                 fill-opacity="0.9"
                 id="path4" />
            </g>
          </g>
        </g>
        <g
           id="g49">
          <g
             class="dcg-svg-axis-value"
             id="g6">
            <text
               fill="none"
               stroke="#ffffff"
               font-family="Arial"
               font-size="17px"
               font-style="normal"
               font-weight="normal"
               text-decoration="normal"
               x="478.45944"
               y="257.53699"
               text-anchor="middle"
               stroke-miterlimit="2"
               stroke-width="3"
               stroke-dasharray="none"
               id="text5">0</text>
            <text
               fill="#000000"
               stroke="none"
               font-family="Arial"
               font-size="17px"
               font-style="normal"
               font-weight="normal"
               text-decoration="normal"
               x="478.45944"
               y="257.53699"
               text-anchor="middle"
               id="text6">0</text>
          </g>
          <g
             id="g7">
            <path
               fill="none"
               stroke="#000000"
               class="dcg-svg-tickmark"
               paint-order="fill stroke markers"
               d="m 51,235 v 8 m 110,-8 v 8 m 109,-8 v 8 m 109,-8 v 8 m 218,-8 v 8 m 110,-8 v 8 m 109,-8 v 8 m 109,-8 v 8 M 484,934 h 8 m -8,-69 h 8 m -8,-70 h 8 m -8,-69 h 8 m -8,-70 h 8 m -8,-69 h 8 m -8,-70 h 8 m -8,-69 h 8 m -8,-70 h 8 m -8,-69 h 8 m -8,-139 h 8 m -8,-70 h 8 m -8,-69 h 8"
               stroke-opacity="0.9"
               stroke-miterlimit="2"
               stroke-width="2"
               stroke-dasharray="none"
               id="path6" />
          </g>
          <g
             class="dcg-svg-axis-value"
             id="g8">
            <text
               fill="none"
               stroke="#ffffff"
               font-family="Arial"
               font-size="17px"
               font-style="normal"
               font-weight="normal"
               text-decoration="normal"
               x="48.632984"
               y="257.53699"
               text-anchor="middle"
               stroke-miterlimit="2"
               stroke-width="3"
               stroke-dasharray="none"
               id="text7">-2π</text>
            <text
               fill="#000000"
               stroke="none"
               font-family="Arial"
               font-size="17px"
               font-style="normal"
               font-weight="normal"
               text-decoration="normal"
               x="48.632984"
               y="257.53699"
               text-anchor="middle"
               id="text8">-2π</text>
          </g>
          <g
             class="dcg-svg-axis-value"
             id="g10">
            <text
               fill="none"
               stroke="#ffffff"
               font-family="Arial"
               font-size="17px"
               font-style="normal"
               font-weight="normal"
               text-decoration="normal"
               x="157.81378"
               y="257.53699"
               text-anchor="middle"
               stroke-miterlimit="2"
               stroke-width="3"
               stroke-dasharray="none"
               id="text9">-3π/2</text>
            <text
               fill="#000000"
               stroke="none"
               font-family="Arial"
               font-size="17px"
               font-style="normal"
               font-weight="normal"
               text-decoration="normal"
               x="157.81378"
               y="257.53699"
               text-anchor="middle"
               id="text10">-3π/2</text>
          </g>
          <g
             class="dcg-svg-axis-value"
             id="g12">
            <text
               fill="none"
               stroke="#ffffff"
               font-family="Arial"
               font-size="17px"
               font-style="normal"
               font-weight="normal"
               text-decoration="normal"
               x="266.99457"
               y="257.53699"
               text-anchor="middle"
               stroke-miterlimit="2"
               stroke-width="3"
               stroke-dasharray="none"
               id="text11">-π</text>
            <text
               fill="#000000"
               stroke="none"
               font-family="Arial"
               font-size="17px"
               font-style="normal"
               font-weight="normal"
               text-decoration="normal"
               x="266.99457"
               y="257.53699"
               text-anchor="middle"
               id="text12">-π</text>
          </g>
          <g
             class="dcg-svg-axis-value"
             id="g14">
            <text
               fill="none"
               stroke="#ffffff"
               font-family="Arial"
               font-size="17px"
               font-style="normal"
               font-weight="normal"
               text-decoration="normal"
               x="376.17535"
               y="257.53699"
               text-anchor="middle"
               stroke-miterlimit="2"
               stroke-width="3"
               stroke-dasharray="none"
               id="text13">-π/2</text>
            <text
               fill="#000000"
               stroke="none"
               font-family="Arial"
               font-size="17px"
               font-style="normal"
               font-weight="normal"
               text-decoration="normal"
               x="376.17535"
               y="257.53699"
               text-anchor="middle"
               id="text14">-π/2</text>
          </g>
          <g
             class="dcg-svg-axis-value"
             id="g16">
            <text
               fill="none"
               stroke="#ffffff"
               font-family="Arial"
               font-size="17px"
               font-style="normal"
               font-weight="normal"
               text-decoration="normal"
               x="597.36749"
               y="257.53699"
               text-anchor="middle"
               stroke-miterlimit="2"
               stroke-width="3"
               stroke-dasharray="none"
               id="text15">π/2</text>
            <text
               fill="#000000"
               stroke="none"
               font-family="Arial"
               font-size="17px"
               font-style="normal"
               font-weight="normal"
               text-decoration="normal"
               x="597.36749"
               y="257.53699"
               text-anchor="middle"
               id="text16">π/2</text>
          </g>
          <g
             class="dcg-svg-axis-value"
             id="g18">
            <text
               fill="none"
               stroke="#ffffff"
               font-family="Arial"
               font-size="17px"
               font-style="normal"
               font-weight="normal"
               text-decoration="normal"
               x="706.54834"
               y="257.53699"
               text-anchor="middle"
               stroke-miterlimit="2"
               stroke-width="3"
               stroke-dasharray="none"
               id="text17">π</text>
            <text
               fill="#000000"
               stroke="none"
               font-family="Arial"
               font-size="17px"
               font-style="normal"
               font-weight="normal"
               text-decoration="normal"
               x="706.54834"
               y="257.53699"
               text-anchor="middle"
               id="text18">π</text>
          </g>
          <g
             class="dcg-svg-axis-value"
             id="g20">
            <text
               fill="none"
               stroke="#ffffff"
               font-family="Arial"
               font-size="17px"
               font-style="normal"
               font-weight="normal"
               text-decoration="normal"
               x="815.72913"
               y="257.53699"
               text-anchor="middle"
               stroke-miterlimit="2"
               stroke-width="3"
               stroke-dasharray="none"
               id="text19">3π/2</text>
            <text
               fill="#000000"
               stroke="none"
               font-family="Arial"
               font-size="17px"
               font-style="normal"
               font-weight="normal"
               text-decoration="normal"
               x="815.72913"
               y="257.53699"
               text-anchor="middle"
               id="text20">3π/2</text>
          </g>
          <g
             class="dcg-svg-axis-value"
             id="g22">
            <text
               fill="none"
               stroke="#ffffff"
               font-family="Arial"
               font-size="17px"
               font-style="normal"
               font-weight="normal"
               text-decoration="normal"
               x="924.90991"
               y="257.53699"
               text-anchor="middle"
               stroke-miterlimit="2"
               stroke-width="3"
               stroke-dasharray="none"
               id="text21">2π</text>
            <text
               fill="#000000"
               stroke="none"
               font-family="Arial"
               font-size="17px"
               font-style="normal"
               font-weight="normal"
               text-decoration="normal"
               x="924.90991"
               y="257.53699"
               text-anchor="middle"
               id="text22">2π</text>
          </g>
          <g
             class="dcg-svg-axis-value"
             id="g24">
            <text
               fill="none"
               stroke="#ffffff"
               font-family="Arial"
               font-size="17px"
               font-style="normal"
               font-weight="normal"
               text-decoration="normal"
               x="470.90158"
               y="939.10352"
               text-anchor="middle"
               stroke-miterlimit="2"
               stroke-width="3"
               stroke-dasharray="none"
               id="text23">-10</text>
            <text
               fill="#000000"
               stroke="none"
               font-family="Arial"
               font-size="17px"
               font-style="normal"
               font-weight="normal"
               text-decoration="normal"
               x="470.90158"
               y="939.10352"
               text-anchor="middle"
               id="text24">-10</text>
          </g>
          <g
             class="dcg-svg-axis-value"
             id="g26">
            <text
               fill="none"
               stroke="#ffffff"
               font-family="Arial"
               font-size="17px"
               font-style="normal"
               font-weight="normal"
               text-decoration="normal"
               x="475.62888"
               y="869.59686"
               text-anchor="middle"
               stroke-miterlimit="2"
               stroke-width="3"
               stroke-dasharray="none"
               id="text25">-9</text>
            <text
               fill="#000000"
               stroke="none"
               font-family="Arial"
               font-size="17px"
               font-style="normal"
               font-weight="normal"
               text-decoration="normal"
               x="475.62888"
               y="869.59686"
               text-anchor="middle"
               id="text26">-9</text>
          </g>
          <g
             class="dcg-svg-axis-value"
             id="g28">
            <text
               fill="none"
               stroke="#ffffff"
               font-family="Arial"
               font-size="17px"
               font-style="normal"
               font-weight="normal"
               text-decoration="normal"
               x="475.62888"
               y="800.09021"
               text-anchor="middle"
               stroke-miterlimit="2"
               stroke-width="3"
               stroke-dasharray="none"
               id="text27">-8</text>
            <text
               fill="#000000"
               stroke="none"
               font-family="Arial"
               font-size="17px"
               font-style="normal"
               font-weight="normal"
               text-decoration="normal"
               x="475.62888"
               y="800.09021"
               text-anchor="middle"
               id="text28">-8</text>
          </g>
          <g
             class="dcg-svg-axis-value"
             id="g30">
            <text
               fill="none"
               stroke="#ffffff"
               font-family="Arial"
               font-size="17px"
               font-style="normal"
               font-weight="normal"
               text-decoration="normal"
               x="475.62888"
               y="730.58356"
               text-anchor="middle"
               stroke-miterlimit="2"
               stroke-width="3"
               stroke-dasharray="none"
               id="text29">-7</text>
            <text
               fill="#000000"
               stroke="none"
               font-family="Arial"
               font-size="17px"
               font-style="normal"
               font-weight="normal"
               text-decoration="normal"
               x="475.62888"
               y="730.58356"
               text-anchor="middle"
               id="text30">-7</text>
          </g>
          <g
             class="dcg-svg-axis-value"
             id="g32">
            <text
               fill="none"
               stroke="#ffffff"
               font-family="Arial"
               font-size="17px"
               font-style="normal"
               font-weight="normal"
               text-decoration="normal"
               x="475.62888"
               y="661.0769"
               text-anchor="middle"
               stroke-miterlimit="2"
               stroke-width="3"
               stroke-dasharray="none"
               id="text31">-6</text>
            <text
               fill="#000000"
               stroke="none"
               font-family="Arial"
               font-size="17px"
               font-style="normal"
               font-weight="normal"
               text-decoration="normal"
               x="475.62888"
               y="661.0769"
               text-anchor="middle"
               id="text32">-6</text>
          </g>
          <g
             class="dcg-svg-axis-value"
             id="g34">
            <text
               fill="none"
               stroke="#ffffff"
               font-family="Arial"
               font-size="17px"
               font-style="normal"
               font-weight="normal"
               text-decoration="normal"
               x="475.62888"
               y="591.57025"
               text-anchor="middle"
               stroke-miterlimit="2"
               stroke-width="3"
               stroke-dasharray="none"
               id="text33">-5</text>
            <text
               fill="#000000"
               stroke="none"
               font-family="Arial"
               font-size="17px"
               font-style="normal"
               font-weight="normal"
               text-decoration="normal"
               x="475.62888"
               y="591.57025"
               text-anchor="middle"
               id="text34">-5</text>
          </g>
          <g
             class="dcg-svg-axis-value"
             id="g36">
            <text
               fill="none"
               stroke="#ffffff"
               font-family="Arial"
               font-size="17px"
               font-style="normal"
               font-weight="normal"
               text-decoration="normal"
               x="475.62888"
               y="522.0636"
               text-anchor="middle"
               stroke-miterlimit="2"
               stroke-width="3"
               stroke-dasharray="none"
               id="text35">-4</text>
            <text
               fill="#000000"
               stroke="none"
               font-family="Arial"
               font-size="17px"
               font-style="normal"
               font-weight="normal"
               text-decoration="normal"
               x="475.62888"
               y="522.0636"
               text-anchor="middle"
               id="text36">-4</text>
          </g>
          <g
             class="dcg-svg-axis-value"
             id="g38">
            <text
               fill="none"
               stroke="#ffffff"
               font-family="Arial"
               font-size="17px"
               font-style="normal"
               font-weight="normal"
               text-decoration="normal"
               x="475.62888"
               y="452.55695"
               text-anchor="middle"
               stroke-miterlimit="2"
               stroke-width="3"
               stroke-dasharray="none"
               id="text37">-3</text>
            <text
               fill="#000000"
               stroke="none"
               font-family="Arial"
               font-size="17px"
               font-style="normal"
               font-weight="normal"
               text-decoration="normal"
               x="475.62888"
               y="452.55695"
               text-anchor="middle"
               id="text38">-3</text>
          </g>
          <g
             class="dcg-svg-axis-value"
             id="g40">
            <text
               fill="none"
               stroke="#ffffff"
               font-family="Arial"
               font-size="17px"
               font-style="normal"
               font-weight="normal"
               text-decoration="normal"
               x="475.62888"
               y="383.05029"
               text-anchor="middle"
               stroke-miterlimit="2"
               stroke-width="3"
               stroke-dasharray="none"
               id="text39">-2</text>
            <text
               fill="#000000"
               stroke="none"
               font-family="Arial"
               font-size="17px"
               font-style="normal"
               font-weight="normal"
               text-decoration="normal"
               x="475.62888"
               y="383.05029"
               text-anchor="middle"
               id="text40">-2</text>
          </g>
          <g
             class="dcg-svg-axis-value"
             id="g42">
            <text
               fill="none"
               stroke="#ffffff"
               font-family="Arial"
               font-size="17px"
               font-style="normal"
               font-weight="normal"
               text-decoration="normal"
               x="475.62888"
               y="313.54364"
               text-anchor="middle"
               stroke-miterlimit="2"
               stroke-width="3"
               stroke-dasharray="none"
               id="text41">-1</text>
            <text
               fill="#000000"
               stroke="none"
               font-family="Arial"
               font-size="17px"
               font-style="normal"
               font-weight="normal"
               text-decoration="normal"
               x="475.62888"
               y="313.54364"
               text-anchor="middle"
               id="text42">-1</text>
          </g>
          <g
             class="dcg-svg-axis-value"
             id="g44">
            <text
               fill="none"
               stroke="#ffffff"
               font-family="Arial"
               font-size="17px"
               font-style="normal"
               font-weight="normal"
               text-decoration="normal"
               x="478.45944"
               y="174.53035"
               text-anchor="middle"
               stroke-miterlimit="2"
               stroke-width="3"
               stroke-dasharray="none"
               id="text43">1</text>
            <text
               fill="#000000"
               stroke="none"
               font-family="Arial"
               font-size="17px"
               font-style="normal"
               font-weight="normal"
               text-decoration="normal"
               x="478.45944"
               y="174.53035"
               text-anchor="middle"
               id="text44">1</text>
          </g>
          <g
             class="dcg-svg-axis-value"
             id="g46">
            <text
               fill="none"
               stroke="#ffffff"
               font-family="Arial"
               font-size="17px"
               font-style="normal"
               font-weight="normal"
               text-decoration="normal"
               x="478.45944"
               y="105.0237"
               text-anchor="middle"
               stroke-miterlimit="2"
               stroke-width="3"
               stroke-dasharray="none"
               id="text45">2</text>
            <text
               fill="#000000"
               stroke="none"
               font-family="Arial"
               font-size="17px"
               font-style="normal"
               font-weight="normal"
               text-decoration="normal"
               x="478.45944"
               y="105.0237"
               text-anchor="middle"
               id="text46">2</text>
          </g>
          <g
             class="dcg-svg-axis-value"
             id="g48">
            <text
               fill="none"
               stroke="#ffffff"
               font-family="Arial"
               font-size="17px"
               font-style="normal"
               font-weight="normal"
               text-decoration="normal"
               x="478.45944"
               y="35.517044"
               text-anchor="middle"
               stroke-miterlimit="2"
               stroke-width="3"
               stroke-dasharray="none"
               id="text47">3</text>
            <text
               fill="#000000"
               stroke="none"
               font-family="Arial"
               font-size="17px"
               font-style="normal"
               font-weight="normal"
               text-decoration="normal"
               x="478.45944"
               y="35.517044"
               text-anchor="middle"
               id="text48">3</text>
          </g>
        </g>
      </g>
    </g>
    <g
       id="expressions-d05fae78">
      <g
         id="sketch-d05fae78">
        <title
           id="title49">Expression 1</title>
        <path
           fill="#c74440"
           stroke="none"
           paint-order="stroke fill markers"
           d=""
           fill-opacity="0.4"
           id="path49" />
        <g
           id="g50">
          <path
             fill="none"
             stroke="#c74440"
             class="dcg-svg-curve"
             paint-order="fill stroke markers"
             d="m 0,302.93131 v 0 l 5.6152344,-9.61562 6.3476566,-9.5176 7.568359,-9.99885 9.033203,-10.62104 11.230469,-11.9857 38.818359,-40.39982 8.544922,-10.58279 7.324219,-10.3048 6.103518,-9.84087 5.37109,-9.96431 4.63867,-9.92694 4.15039,-10.25485 3.90625,-11.20479 3.66211,-12.2989 3.17383,-12.49869 3.17383,-14.746491 2.92969,-16.248276 2.68554,-17.861555 2.44141,-19.532463 2.44141,-23.777704 2.19726,-26.3636932 L 141.48316,-6.5"
             stroke-linecap="round"
             stroke-linejoin="round"
             stroke-miterlimit="10"
             stroke-width="3.5"
             stroke-dasharray="none"
             id="path50" />
        </g>
        <g
           id="g51">
          <path
             fill="none"
             stroke="#c74440"
             class="dcg-svg-curve"
             paint-order="fill stroke markers"
             d="m 166.98394,1006.5 v 0 l 0.49653,-62.65468 1.46484,-125.20061 1.46485,-87.78847 1.70898,-74.25027 1.70899,-55.1498 1.95312,-47.93956 2.19727,-41.19763 2.19726,-32.09722 2.44141,-28.31205 2.4414,-22.81913 2.68555,-20.53027 2.92969,-18.40291 2.92969,-15.3185 3.17382,-13.98764 3.41797,-12.76496 3.66211,-11.66415 3.90625,-10.68824 4.39453,-10.37182 4.88282,-9.96426 5.37109,-9.53144 6.10351,-9.47821 7.32422,-9.99483 8.54493,-10.33957 10.49804,-11.46393 16.11328,-16.34792 18.06641,-18.57303 10.00977,-11.36086 8.05664,-10.2476 7.08007,-10.24228 5.85938,-9.71917 5.12695,-9.76996 4.63867,-10.2017 4.15039,-10.57792 3.90625,-11.60364 3.41797,-11.87039 3.17383,-12.89941 2.92969,-13.998898 2.92969,-16.643487 2.68554,-18.346893 2.44141,-20.124477 2.44141,-24.585213 L 359.83495,-6.5"
             stroke-linecap="round"
             stroke-linejoin="round"
             stroke-miterlimit="10"
             stroke-width="3.5"
             stroke-dasharray="none"
             id="path51" />
        </g>
        <g
           id="g52">
          <path
             fill="none"
             stroke="#c74440"
             class="dcg-svg-curve"
             paint-order="fill stroke markers"
             d="m 385.34474,1006.5 v 0 l 0.64159,-77.30944 1.46484,-120.53662 1.46485,-85.04797 1.70898,-72.2762 1.95312,-60.49118 1.95313,-45.43763 2.19727,-39.32137 2.19726,-30.81252 2.44141,-27.30865 2.4414,-22.09951 2.68555,-19.9512 2.92969,-17.93916 2.92969,-14.97252 3.17382,-13.70362 3.41797,-12.53244 3.66211,-11.47398 4.15039,-11.14232 4.39453,-10.15575 4.88282,-9.78245 5.61523,-9.77943 6.34766,-9.65318 7.32422,-9.80551 8.78906,-10.46757 10.74219,-11.58759 18.79882,-18.9761 14.89258,-15.48415 9.76563,-11.20219 8.05664,-10.38536 6.83593,-10.03403 5.85938,-9.86529 5.12695,-9.94238 4.63867,-10.40918 4.1504,-10.82278 3.6621,-11.10455 3.41797,-12.08238 3.17383,-13.15619 2.92969,-14.308806 2.68555,-15.507596 2.68554,-18.53252 2.44141,-20.351581 2.44141,-24.896074 L 578.18512,-6.5"
             stroke-linecap="round"
             stroke-linejoin="round"
             stroke-miterlimit="10"
             stroke-width="3.5"
             stroke-dasharray="none"
             id="path52" />
        </g>
        <g
           id="g53">
          <path
             fill="none"
             stroke="#c74440"
             class="dcg-svg-curve"
             paint-order="fill stroke markers"
             d="m 603.70758,1006.5 v 0 l 0.54047,-67.23052 1.46484,-123.73644 1.46484,-86.93092 1.70899,-73.63406 1.70898,-54.75693 1.95313,-47.64303 2.19726,-40.97626 2.19727,-31.94621 2.44141,-28.19448 2.4414,-22.73501 2.68555,-20.46274 2.92969,-18.34893 2.92968,-15.27829 3.17383,-13.95467 3.41797,-12.73802 3.66211,-11.64213 3.90625,-10.67026 4.39453,-10.35636 4.88281,-9.95128 5.3711,-9.52073 6.10351,-9.46921 7.32422,-9.98713 8.54492,-10.33352 10.49805,-11.45954 16.11328,-16.34582 18.06641,-18.57661 10.00976,-11.36617 8.05664,-10.25444 7.08008,-10.25104 5.85938,-9.72927 5.12695,-9.78186 4.63867,-10.216 4.15039,-10.59478 3.90625,-11.62451 3.41797,-11.8943 3.17383,-12.92835 2.92969,-14.03377 2.92968,-16.689653 2.68555,-18.403712 2.44141,-20.193952 2.4414,-24.680246 L 796.55439,-6.5"
             stroke-linecap="round"
             stroke-linejoin="round"
             stroke-miterlimit="10"
             stroke-width="3.5"
             stroke-dasharray="none"
             id="path53" />
        </g>
        <g
           id="g54">
          <path
             fill="none"
             stroke="#c74440"
             class="dcg-svg-curve"
             paint-order="fill stroke markers"
             d="m 822.06634,1006.5 v 0 l 0.68757,-81.69927 1.46484,-119.15384 1.70898,-95.9302 1.70899,-68.55928 1.95312,-57.82599 1.95313,-43.70555 2.19726,-38.01092 2.19727,-29.90867 2.44141,-26.59847 2.4414,-21.58761 2.68555,-19.53754 2.92969,-17.60662 3.17382,-15.84399 3.17383,-13.32931 3.41797,-12.22497 3.66211,-11.2218 4.15039,-10.92434 4.39453,-9.98028 4.88282,-9.63441 5.61523,-9.65208 6.34766,-9.54778 7.56836,-10.02429 9.0332,-10.64097 11.23047,-11.99947 39.30664,-40.94985 8.30078,-10.30975 7.32422,-10.32165 6.10351,-9.86061 5.3711,-9.98793 4.63867,-9.95412 4.15039,-10.28675 3.90625,-11.24409 3.66211,-12.34738 3.17383,-12.55369 0.97656,-4.28882"
             stroke-linecap="round"
             stroke-linejoin="round"
             stroke-miterlimit="10"
             stroke-width="3.5"
             stroke-dasharray="none"
             id="path54" />
        </g>
      </g>
      <g
         id="g57">
        <title
           id="title54">Expression 2</title>
        <path
           fill="#000000"
           stroke="none"
           paint-order="stroke fill markers"
           d=""
           fill-opacity="0.4"
           id="path55" />
        <g
           id="g56">
          <path
             fill="none"
             stroke="#000000"
             class="dcg-svg-curve"
             paint-order="fill stroke markers"
             d="m 597.36752,1000 v -6.16 m 0,-3.92 v -6.16 m 0,-3.92 v -6.16 m 0,-3.92 v -6.16 m 0,-3.92 v -6.16 m 0,-3.92 v -6.16 m 0,-3.92 v -6.16 m 0,-3.92 v -6.16 m 0,-3.92 v -6.16 m 0,-3.92 v -6.16 m 0,-3.92 v -6.16 m 0,-3.92 v -6.16 m 0,-3.92 v -6.16 m 0,-3.92 v -6.16 m 0,-3.92 v -6.16 m 0,-3.92 v -6.16 m 0,-3.92 v -6.16 m 0,-3.92 v -6.16 m 0,-3.92 v -6.16 m 0,-3.92 v -6.16 m 0,-3.92 v -6.16 m 0,-3.92 v -6.16 m 0,-3.92 v -6.16 m 0,-3.92 V 762 m 0,-3.92 v -6.16 m 0,-3.92 v -6.16 m 0,-3.92 v -6.16 m 0,-3.92 v -6.16 m 0,-3.92 v -6.16 m 0,-3.92 v -6.16 m 0,-3.92 v -6.16 m 0,-3.92 v -6.16 m 0,-3.92 v -6.16 m 0,-3.92 v -6.16 m 0,-3.92 v -6.16 m 0,-3.92 v -6.16 m 0,-3.92 v -6.16 m 0,-3.92 v -6.16 m 0,-3.92 v -6.16 m 0,-3.92 v -6.16 m 0,-3.92 v -6.16 m 0,-3.92 v -6.16 m 0,-3.92 v -6.16 m 0,-3.92 v -6.16 m 0,-3.92 v -6.16 m 0,-3.92 v -6.16 m 0,-3.92 v -6.16 m 0,-3.92 v -6.16 m 0,-3.92 V 510 m 0,-3.92 v -6.16 m 0,-3.92 v -6.16 m 0,-3.92 v -6.16 m 0,-3.92 v -6.16 m 0,-3.92 v -6.16 m 0,-3.92 v -6.16 m 0,-3.92 v -6.16 m 0,-3.92 v -6.16 m 0,-3.92 v -6.16 m 0,-3.92 v -6.16 m 0,-3.92 v -6.16 m 0,-3.92 v -6.16 m 0,-3.92 v -6.16 m 0,-3.92 v -6.16 m 0,-3.92 v -6.16 m 0,-3.92 v -6.16 m 0,-3.92 v -6.16 m 0,-3.92 v -6.16 m 0,-3.92 v -6.16 m 0,-3.92 v -6.16 m 0,-3.92 v -6.16 m 0,-3.92 v -6.16 m 0,-3.92 v -6.16 m 0,-3.92 v -6.16 m 0,-3.92 V 258 m 0,-3.92 v -6.16 m 0,-3.92 v -6.16 m 0,-3.92 v -6.16 m 0,-3.92 v -6.16 m 0,-3.92 v -6.16 m 0,-3.92 v -6.16 m 0,-3.92 v -6.16 m 0,-3.92 v -6.16 m 0,-3.92 v -6.16 m 0,-3.92 v -6.16 m 0,-3.92 v -6.16 m 0,-3.92 v -6.16 m 0,-3.92 v -6.16 m 0,-3.92 v -6.16 m 0,-3.92 v -6.16 m 0,-3.92 v -6.16 m 0,-3.92 v -6.16 m 0,-3.92 v -6.16 m 0,-3.92 v -6.16 m 0,-3.92 V 56.4 m 0,-3.92 v -6.16 m 0,-3.92 v -6.16 m 0,-3.92 v -6.16 m 0,-3.92 v -6.16 m 0,-3.92 V 6 m 0,-3.92 V 0"
             stroke-linecap="round"
             stroke-linejoin="round"
             stroke-miterlimit="10"
             stroke-width="1.4"
             stroke-dasharray="none"
             id="path56" />
        </g>
      </g>
      <g
         id="g59">
        <title
           id="title57">Expression 3</title>
        <path
           fill="#000000"
           stroke="none"
           paint-order="stroke fill markers"
           d=""
           fill-opacity="0.4"
           id="path57" />
        <g
           id="g58">
          <path
             fill="none"
             stroke="#000000"
             class="dcg-svg-curve"
             paint-order="fill stroke markers"
             d="m 815.7291,1000 v -6.16 m 0,-3.92 v -6.16 m 0,-3.92 v -6.16 m 0,-3.92 v -6.16 m 0,-3.92 v -6.16 m 0,-3.92 v -6.16 m 0,-3.92 v -6.16 m 0,-3.92 v -6.16 m 0,-3.92 v -6.16 m 0,-3.92 v -6.16 m 0,-3.92 v -6.16 m 0,-3.92 v -6.16 m 0,-3.92 v -6.16 m 0,-3.92 v -6.16 m 0,-3.92 v -6.16 m 0,-3.92 v -6.16 m 0,-3.92 v -6.16 m 0,-3.92 v -6.16 m 0,-3.92 v -6.16 m 0,-3.92 v -6.16 m 0,-3.92 v -6.16 m 0,-3.92 v -6.16 m 0,-3.92 v -6.16 m 0,-3.92 V 762 m 0,-3.92 v -6.16 m 0,-3.92 v -6.16 m 0,-3.92 v -6.16 m 0,-3.92 v -6.16 m 0,-3.92 v -6.16 m 0,-3.92 v -6.16 m 0,-3.92 v -6.16 m 0,-3.92 v -6.16 m 0,-3.92 v -6.16 m 0,-3.92 v -6.16 m 0,-3.92 v -6.16 m 0,-3.92 v -6.16 m 0,-3.92 v -6.16 m 0,-3.92 v -6.16 m 0,-3.92 v -6.16 m 0,-3.92 v -6.16 m 0,-3.92 v -6.16 m 0,-3.92 v -6.16 m 0,-3.92 v -6.16 m 0,-3.92 v -6.16 m 0,-3.92 v -6.16 m 0,-3.92 v -6.16 m 0,-3.92 v -6.16 m 0,-3.92 v -6.16 m 0,-3.92 V 510 m 0,-3.92 v -6.16 m 0,-3.92 v -6.16 m 0,-3.92 v -6.16 m 0,-3.92 v -6.16 m 0,-3.92 v -6.16 m 0,-3.92 v -6.16 m 0,-3.92 v -6.16 m 0,-3.92 v -6.16 m 0,-3.92 v -6.16 m 0,-3.92 v -6.16 m 0,-3.92 v -6.16 m 0,-3.92 v -6.16 m 0,-3.92 v -6.16 m 0,-3.92 v -6.16 m 0,-3.92 v -6.16 m 0,-3.92 v -6.16 m 0,-3.92 v -6.16 m 0,-3.92 v -6.16 m 0,-3.92 v -6.16 m 0,-3.92 v -6.16 m 0,-3.92 v -6.16 m 0,-3.92 v -6.16 m 0,-3.92 v -6.16 m 0,-3.92 v -6.16 m 0,-3.92 V 258 m 0,-3.92 v -6.16 m 0,-3.92 v -6.16 m 0,-3.92 v -6.16 m 0,-3.92 v -6.16 m 0,-3.92 v -6.16 m 0,-3.92 v -6.16 m 0,-3.92 v -6.16 m 0,-3.92 v -6.16 m 0,-3.92 v -6.16 m 0,-3.92 v -6.16 m 0,-3.92 v -6.16 m 0,-3.92 v -6.16 m 0,-3.92 v -6.16 m 0,-3.92 v -6.16 m 0,-3.92 v -6.16 m 0,-3.92 v -6.16 m 0,-3.92 v -6.16 m 0,-3.92 v -6.16 m 0,-3.92 v -6.16 m 0,-3.92 V 56.4 m 0,-3.92 v -6.16 m 0,-3.92 v -6.16 m 0,-3.92 v -6.16 m 0,-3.92 v -6.16 m 0,-3.92 V 6 m 0,-3.92 V 0"
             stroke-linecap="round"
             stroke-linejoin="round"
             stroke-miterlimit="10"
             stroke-width="1.4"
             stroke-dasharray="none"
             id="path58" />
        </g>
      </g>
      <g
         id="g60">
        <title
           id="title59">Expression 4</title>
        <path
           fill="#000000"
           stroke="none"
           paint-order="stroke fill markers"
           d=""
           fill-opacity="0.4"
           id="path59" />
      </g>
      <g
         id="g62">
        <title
           id="title60">Expression 5</title>
        <path
           fill="#000000"
           stroke="none"
           paint-order="stroke fill markers"
           d=""
           fill-opacity="0.4"
           id="path60" />
        <g
           id="g61">
          <path
             fill="none"
             stroke="#000000"
             class="dcg-svg-curve"
             paint-order="fill stroke markers"
             d="m 379.00593,1000 v -6.16 m 0,-3.92 v -6.16 m 0,-3.92 v -6.16 m 0,-3.92 v -6.16 m 0,-3.92 v -6.16 m 0,-3.92 v -6.16 m 0,-3.92 v -6.16 m 0,-3.92 v -6.16 m 0,-3.92 v -6.16 m 0,-3.92 v -6.16 m 0,-3.92 v -6.16 m 0,-3.92 v -6.16 m 0,-3.92 v -6.16 m 0,-3.92 v -6.16 m 0,-3.92 v -6.16 m 0,-3.92 v -6.16 m 0,-3.92 v -6.16 m 0,-3.92 v -6.16 m 0,-3.92 v -6.16 m 0,-3.92 v -6.16 m 0,-3.92 v -6.16 m 0,-3.92 v -6.16 m 0,-3.92 v -6.16 m 0,-3.92 V 762 m 0,-3.92 v -6.16 m 0,-3.92 v -6.16 m 0,-3.92 v -6.16 m 0,-3.92 v -6.16 m 0,-3.92 v -6.16 m 0,-3.92 v -6.16 m 0,-3.92 v -6.16 m 0,-3.92 v -6.16 m 0,-3.92 v -6.16 m 0,-3.92 v -6.16 m 0,-3.92 v -6.16 m 0,-3.92 v -6.16 m 0,-3.92 v -6.16 m 0,-3.92 v -6.16 m 0,-3.92 v -6.16 m 0,-3.92 v -6.16 m 0,-3.92 v -6.16 m 0,-3.92 v -6.16 m 0,-3.92 v -6.16 m 0,-3.92 v -6.16 m 0,-3.92 v -6.16 m 0,-3.92 v -6.16 m 0,-3.92 v -6.16 m 0,-3.92 v -6.16 m 0,-3.92 V 510 m 0,-3.92 v -6.16 m 0,-3.92 v -6.16 m 0,-3.92 v -6.16 m 0,-3.92 v -6.16 m 0,-3.92 v -6.16 m 0,-3.92 v -6.16 m 0,-3.92 v -6.16 m 0,-3.92 v -6.16 m 0,-3.92 v -6.16 m 0,-3.92 v -6.16 m 0,-3.92 v -6.16 m 0,-3.92 v -6.16 m 0,-3.92 v -6.16 m 0,-3.92 v -6.16 m 0,-3.92 v -6.16 m 0,-3.92 v -6.16 m 0,-3.92 v -6.16 m 0,-3.92 v -6.16 m 0,-3.92 v -6.16 m 0,-3.92 v -6.16 m 0,-3.92 v -6.16 m 0,-3.92 v -6.16 m 0,-3.92 v -6.16 m 0,-3.92 v -6.16 m 0,-3.92 V 258 m 0,-3.92 v -6.16 m 0,-3.92 v -6.16 m 0,-3.92 v -6.16 m 0,-3.92 v -6.16 m 0,-3.92 v -6.16 m 0,-3.92 v -6.16 m 0,-3.92 v -6.16 m 0,-3.92 v -6.16 m 0,-3.92 v -6.16 m 0,-3.92 v -6.16 m 0,-3.92 v -6.16 m 0,-3.92 v -6.16 m 0,-3.92 v -6.16 m 0,-3.92 v -6.16 m 0,-3.92 v -6.16 m 0,-3.92 v -6.16 m 0,-3.92 v -6.16 m 0,-3.92 v -6.16 m 0,-3.92 v -6.16 m 0,-3.92 V 56.4 m 0,-3.92 v -6.16 m 0,-3.92 v -6.16 m 0,-3.92 v -6.16 m 0,-3.92 v -6.16 m 0,-3.92 V 6 m 0,-3.92 V 0"
             stroke-linecap="round"
             stroke-linejoin="round"
             stroke-miterlimit="10"
             stroke-width="1.4"
             stroke-dasharray="none"
             id="path61" />
        </g>
      </g>
      <g
         id="g64">
        <title
           id="title62">Expression 6</title>
        <path
           fill="#000000"
           stroke="none"
           paint-order="stroke fill markers"
           d=""
           fill-opacity="0.4"
           id="path62" />
        <g
           id="g63">
          <path
             fill="none"
             stroke="#000000"
             class="dcg-svg-curve"
             paint-order="fill stroke markers"
             d="m 160.64434,1000 v -6.16 m 0,-3.92 v -6.16 m 0,-3.92 v -6.16 m 0,-3.92 v -6.16 m 0,-3.92 v -6.16 m 0,-3.92 v -6.16 m 0,-3.92 v -6.16 m 0,-3.92 v -6.16 m 0,-3.92 v -6.16 m 0,-3.92 v -6.16 m 0,-3.92 v -6.16 m 0,-3.92 v -6.16 m 0,-3.92 v -6.16 m 0,-3.92 v -6.16 m 0,-3.92 v -6.16 m 0,-3.92 v -6.16 m 0,-3.92 v -6.16 m 0,-3.92 v -6.16 m 0,-3.92 v -6.16 m 0,-3.92 v -6.16 m 0,-3.92 v -6.16 m 0,-3.92 v -6.16 m 0,-3.92 v -6.16 m 0,-3.92 V 762 m 0,-3.92 v -6.16 m 0,-3.92 v -6.16 m 0,-3.92 v -6.16 m 0,-3.92 v -6.16 m 0,-3.92 v -6.16 m 0,-3.92 v -6.16 m 0,-3.92 v -6.16 m 0,-3.92 v -6.16 m 0,-3.92 v -6.16 m 0,-3.92 v -6.16 m 0,-3.92 v -6.16 m 0,-3.92 v -6.16 m 0,-3.92 v -6.16 m 0,-3.92 v -6.16 m 0,-3.92 v -6.16 m 0,-3.92 v -6.16 m 0,-3.92 v -6.16 m 0,-3.92 v -6.16 m 0,-3.92 v -6.16 m 0,-3.92 v -6.16 m 0,-3.92 v -6.16 m 0,-3.92 v -6.16 m 0,-3.92 v -6.16 m 0,-3.92 v -6.16 m 0,-3.92 V 510 m 0,-3.92 v -6.16 m 0,-3.92 v -6.16 m 0,-3.92 v -6.16 m 0,-3.92 v -6.16 m 0,-3.92 v -6.16 m 0,-3.92 v -6.16 m 0,-3.92 v -6.16 m 0,-3.92 v -6.16 m 0,-3.92 v -6.16 m 0,-3.92 v -6.16 m 0,-3.92 v -6.16 m 0,-3.92 v -6.16 m 0,-3.92 v -6.16 m 0,-3.92 v -6.16 m 0,-3.92 v -6.16 m 0,-3.92 v -6.16 m 0,-3.92 v -6.16 m 0,-3.92 v -6.16 m 0,-3.92 v -6.16 m 0,-3.92 v -6.16 m 0,-3.92 v -6.16 m 0,-3.92 v -6.16 m 0,-3.92 v -6.16 m 0,-3.92 v -6.16 m 0,-3.92 V 258 m 0,-3.92 v -6.16 m 0,-3.92 v -6.16 m 0,-3.92 v -6.16 m 0,-3.92 v -6.16 m 0,-3.92 v -6.16 m 0,-3.92 v -6.16 m 0,-3.92 v -6.16 m 0,-3.92 v -6.16 m 0,-3.92 v -6.16 m 0,-3.92 v -6.16 m 0,-3.92 v -6.16 m 0,-3.92 v -6.16 m 0,-3.92 v -6.16 m 0,-3.92 v -6.16 m 0,-3.92 v -6.16 m 0,-3.92 v -6.16 m 0,-3.92 v -6.16 m 0,-3.92 v -6.16 m 0,-3.92 v -6.16 m 0,-3.92 V 56.4 m 0,-3.92 v -6.16 m 0,-3.92 v -6.16 m 0,-3.92 v -6.16 m 0,-3.92 v -6.16 m 0,-3.92 V 6 m 0,-3.92 V 0"
             stroke-linecap="round"
             stroke-linejoin="round"
             stroke-miterlimit="10"
             stroke-width="1.4"
             stroke-dasharray="none"
             id="path63" />
        </g>
      </g>
    </g>
    <g
       id="labels-d05fae78" />
    <g
       id="g65" />
  </g>
</svg>
