<?xml version="1.0" encoding="UTF-8" standalone="no"?>
<svg
   version="1.1"
   width="700"
   height="720"
   id="svg32"
   sodipodi:docname="angle-pi6.svg"
   inkscape:version="1.4.3 (0d15f75, 2025-12-25)"
   xmlns:inkscape="http://www.inkscape.org/namespaces/inkscape"
   xmlns:sodipodi="http://sodipodi.sourceforge.net/DTD/sodipodi-0.dtd"
   xmlns="http://www.w3.org/2000/svg"
   xmlns:svg="http://www.w3.org/2000/svg">
  <sodipodi:namedview
     id="namedview32"
     pagecolor="#ffffff"
     bordercolor="#000000"
     borderopacity="0.25"
     inkscape:showpageshadow="2"
     inkscape:pageopacity="0.0"
     inkscape:pagecheckerboard="0"
     inkscape:deskcolor="#d1d1d1"
     inkscape:zoom="0.8075"
     inkscape:cx="399.3808"
     inkscape:cy="400"
     inkscape:window-width="1440"
     inkscape:window-height="890"
     inkscape:window-x="-6"
     inkscape:window-y="1073"
     inkscape:window-maximized="1"
     inkscape:current-layer="svg32" />
  <defs
     id="defs1" />
  <g
     id="graphpaper-b7d59504"
     transform="matrix(2,0,0,2,-111.45511,11.145511)">
    <g
       id="axis-b7d59504">
      <g
         id="yaxis-b7d59504">
        <title
           id="title1">y</title>
        <g
           id="g3">
          <path
             fill="none"
             stroke="#000000"
             class="dcg-svg-axis-line"
             paint-order="fill stroke markers"
             d="M 219,3 V 400"
             stroke-opacity="0.9"
             stroke-miterlimit="10"
             stroke-width="1.5"
             stroke-dasharray="none"
             id="path1" />
          <g
             class="dcg-svg-axis-line"
             id="g2">
            <path
               fill="#000000"
               stroke="#000000"
               class="dcg-svg-axis-line"
               paint-order="stroke fill markers"
               d="m 219,1.5 3.10583,11.59111 h -6.21166 L 219,1.5 l 3.10583,11.59111"
               stroke-opacity="0.9"
               stroke-linejoin="round"
               stroke-miterlimit="10"
               stroke-width="1.5"
               stroke-dasharray="none"
               fill-opacity="0.9"
               id="path2" />
          </g>
        </g>
      </g>
      <g
         id="xaxis-b7d59504">
        <title
           id="title3">x</title>
        <g
           id="g5">
          <path
             fill="none"
             stroke="#000000"
             class="dcg-svg-axis-line"
             paint-order="fill stroke markers"
             d="M 0,186 H 397"
             stroke-opacity="0.9"
             stroke-miterlimit="10"
             stroke-width="1.5"
             stroke-dasharray="none"
             id="path3" />
          <g
             class="dcg-svg-axis-line"
             id="g4">
            <path
               fill="#000000"
               stroke="#000000"
               class="dcg-svg-axis-line"
               paint-order="stroke fill markers"
               d="m 398.5,186 -11.59111,3.10583 v -6.21166 L 398.5,186 l -11.59111,3.10583"
               stroke-opacity="0.9"
               stroke-linejoin="round"
               stroke-miterlimit="10"
               stroke-width="1.5"
               stroke-dasharray="none"
               fill-opacity="0.9"
               id="path4" />
          </g>
        </g>
      </g>
      <g
         id="g7">
        <g
           id="g6">
          <path
             fill="none"
             stroke="#000000"
             class="dcg-svg-tickmark"
             paint-order="fill stroke markers"
             d=""
             stroke-opacity="0.9"
             stroke-miterlimit="2"
             stroke-width="1.5"
             stroke-dasharray="none"
             id="path5" />
        </g>
      </g>
      <g
         class="dcg-svg-axis-label"
         id="g8">
        <text
           fill="none"
           stroke="#ffffff"
           font-family="Times"
           font-size="20px"
           font-style="italic"
           font-weight="normal"
           text-decoration="normal"
           x="376.12305"
           y="200.63586"
           text-anchor="start"
           stroke-miterlimit="2"
           stroke-width="3"
           stroke-dasharray="none"
           id="text7">x</text>
        <text
           fill="#000000"
           stroke="none"
           font-family="Times"
           font-size="20px"
           font-style="italic"
           font-weight="normal"
           text-decoration="normal"
           x="376.12305"
           y="200.63586"
           text-anchor="start"
           id="text8">x</text>
      </g>
      <g
         class="dcg-svg-axis-label"
         transform="translate(204.60031,29)"
         id="g10">
        <text
           fill="none"
           stroke="#ffffff"
           font-family="Times"
           font-size="20px"
           font-style="italic"
           font-weight="normal"
           text-decoration="normal"
           x="0"
           y="0"
           text-anchor="start"
           stroke-miterlimit="2"
           stroke-width="3"
           stroke-dasharray="none"
           id="text9">y</text>
        <text
           fill="#000000"
           stroke="none"
           font-family="Times"
           font-size="20px"
           font-style="italic"
           font-weight="normal"
           text-decoration="normal"
           x="0"
           y="0"
           text-anchor="start"
           id="text10">y</text>
      </g>
    </g>
  </g>
  <g
     id="expressions-b7d59504"
     transform="matrix(2,0,0,2,-111.45511,11.145511)">
    <g
       id="sketch-b7d59504">
      <title
         id="title10">negative pi / 6</title>
    </g>
    <g
       id="g15">
      <title
         id="title11">Expression 3</title>
      <path
         fill="#000000"
         stroke="none"
         paint-order="stroke fill markers"
         d=""
         fill-opacity="0.4"
         id="path11" />
      <g
         id="g12">
        <path
           fill="none"
           stroke="#000000"
           class="dcg-svg-curve"
           paint-order="fill stroke markers"
           d="m 71.775631,185.63586 v 0 l 0.09937,5.41702 0.292969,5.34142 0.488281,5.34629 0.683594,5.33418 0.878906,5.31435 1.074219,5.2883 1.269531,5.25647 1.5625,5.54249 1.757812,5.42087 1.953125,5.31695 2.246094,5.44626 2.539063,5.5123 2.734375,5.34938 3.027343,5.36512 3.320313,5.34473 3.710937,5.43062 4.003907,5.32977 4.29687,5.20918 4.49219,4.96691 4.58984,4.63947 4.78516,4.42764 4.88281,4.13678 5.07813,3.93672 5.17578,3.66566 5.27344,3.40625 5.46875,3.20999 5.5664,2.95463 5.66407,2.70397 5.76171,2.45604 5.85938,2.2091 5.95703,1.96159 5.95703,1.68666 6.05469,1.4425 6.05469,1.17656 6.15234,0.92974 6.15234,0.66686 6.15235,0.40754 6.15234,0.15037 6.15235,-0.10601 6.15234,-0.36296 6.15234,-0.6218 6.15235,-0.88396 6.05468,-1.13055 6.05469,-1.39523 5.95703,-1.63862 5.95703,-1.9117 5.85938,-2.15779 5.76172,-2.40297 5.66406,-2.64875 5.56641,-2.8968 5.46875,-3.149 5.27343,-3.34266 5.17579,-3.59767 5.07812,-3.86336 4.88281,-4.05849 4.78516,-4.34158 4.58984,-4.54581 4.39453,-4.75103 4.29688,-5.08077 4.10156,-5.32065 3.90625,-5.57793 3.51563,-5.53749 3.22265,-5.6081 2.83203,-5.45499 2.53907,-5.42458 2.34375,-5.59055 2.05078,-5.50567 1.75781,-5.34696 1.5625,-5.44642 1.36719,-5.56773 1.07422,-5.20887 0.8789,-5.19716 0.6836,-5.14405 0.48828,-4.98792 0.29297,-4.46976 0.0976,-2.29601 0.0891,-5.12833"
           stroke-linecap="round"
           stroke-linejoin="round"
           stroke-miterlimit="10"
           stroke-width="2.5"
           stroke-dasharray="none"
           id="path12" />
      </g>
      <path
         fill="#000000"
         stroke="none"
         paint-order="stroke fill markers"
         d=""
         fill-opacity="0.4"
         id="path13" />
      <g
         id="g14">
        <path
           fill="none"
           stroke="#000000"
           class="dcg-svg-curve"
           paint-order="fill stroke markers"
           d="m 71.775631,185.63586 v 0 l 0.09937,-5.41702 0.292969,-5.34141 0.488281,-5.34629 0.683594,-5.33418 0.878906,-5.31435 1.074219,-5.2883 1.269531,-5.25647 1.5625,-5.54249 1.757812,-5.42087 1.953125,-5.31695 2.246094,-5.44627 2.539063,-5.51229 2.734375,-5.34938 3.027343,-5.36512 3.320313,-5.34473 3.710937,-5.430616 4.003907,-5.329773 4.29687,-5.209184 4.49219,-4.966907 4.58984,-4.639474 4.78516,-4.427632 4.88281,-4.13678 5.07813,-3.936726 5.17578,-3.665661 5.27344,-3.406244 5.46875,-3.209992 5.5664,-2.954631 5.66407,-2.70397 5.76171,-2.456037 5.85938,-2.209101 5.95703,-1.961597 5.95703,-1.686658 6.05469,-1.442493 6.05469,-1.176566 6.15234,-0.92974 6.15234,-0.666859 6.15235,-0.407541 6.15234,-0.15037 6.15235,0.106015 6.15234,0.362954 6.15234,0.621802 6.15235,0.883962 6.05468,1.130547 6.05469,1.395227 5.95703,1.638626 5.95703,1.911695 5.85938,2.157791 5.76172,2.402972 5.66406,2.648753 5.56641,2.896801 5.46875,3.149001 5.27343,3.342657 5.17579,3.597664 5.07812,3.863365 4.88281,4.058487 4.78516,4.341579 4.58984,4.545814 4.39453,4.751028 4.29688,5.080772 4.10156,5.320649 3.90625,5.577931 3.51563,5.53749 3.22265,5.6081 2.83203,5.45499 2.53907,5.42458 2.34375,5.59055 2.05078,5.50567 1.75781,5.34696 1.5625,5.44642 1.36719,5.56773 1.07422,5.20887 0.8789,5.19716 0.6836,5.14405 0.48828,4.98792 0.29297,4.46976 0.0976,2.29601 0.0891,5.12832"
           stroke-linecap="round"
           stroke-linejoin="round"
           stroke-miterlimit="10"
           stroke-width="2.5"
           stroke-dasharray="none"
           id="path14" />
      </g>
    </g>
    <g
       id="g17">
      <title
         id="title15">Expression 4</title>
      <path
         fill="#c74440"
         stroke="none"
         paint-order="stroke fill markers"
         d=""
         fill-opacity="0.4"
         id="path15" />
      <g
         id="g16">
        <path
           fill="none"
           stroke="#c74440"
           class="dcg-svg-curve"
           paint-order="fill stroke markers"
           d="m 239.26928,197.11866 v 0 l 1.07415,-2.09228 0.87884,-2.26778 0.5859,-2.1318 0.39059,-2.28685 0.0977,-1.01143 0.0627,-1.69265"
           stroke-linecap="round"
           stroke-linejoin="round"
           stroke-miterlimit="10"
           stroke-width="2.5"
           stroke-dasharray="none"
           id="path16" />
      </g>
      <path
         fill="#c74440"
         stroke="none"
         paint-order="stroke fill markers"
         d=""
         fill-opacity="0.4"
         id="path17" />
    </g>
    <g
       id="g20">
      <title
         id="title17">Expression 5</title>
      <path
         fill="#c74440"
         stroke="none"
         paint-order="stroke fill markers"
         d=""
         fill-opacity="0.4"
         id="path18" />
      <g
         id="g19">
        <path
           fill="none"
           stroke="#c74440"
           class="dcg-svg-curve"
           paint-order="fill stroke markers"
           d="m 219.47727,185.63586 v 0 l 128.20501,74.01921"
           stroke-linecap="round"
           stroke-linejoin="round"
           stroke-miterlimit="10"
           stroke-width="2.5"
           stroke-dasharray="none"
           id="path19" />
      </g>
    </g>
    <g
       id="g22">
      <title
         id="title20">Expression 8</title>
      <path
         fill="#c74440"
         stroke="none"
         paint-order="stroke fill markers"
         d=""
         fill-opacity="0.4"
         id="path20" />
      <g
         id="g21">
        <path
           fill="none"
           stroke="#c74440"
           class="dcg-svg-curve"
           paint-order="fill stroke markers"
           d="m 219.47727,185.63586 v 0 H 367.1789"
           stroke-linecap="round"
           stroke-linejoin="round"
           stroke-miterlimit="10"
           stroke-width="2.5"
           stroke-dasharray="none"
           id="path21" />
      </g>
    </g>
  </g>
  <g
     id="labels-b7d59504"
     transform="matrix(2,0,0,2,-111.45511,11.145511)">
    <g
       transform="translate(252.5,189)"
       id="g30">
      <g
         class="dcg-svg-label"
         id="g29">
        <text
           fill="none"
           stroke="#ffffff"
           font-family="Symbola, 'Times New Roman', serif"
           font-size="17.71px"
           font-style="normal"
           font-weight="400"
           text-decoration="normal"
           x="2"
           y="15.46212"
           text-anchor="start"
           stroke-linecap="round"
           stroke-linejoin="round"
           stroke-miterlimit="2"
           stroke-width="3"
           stroke-dasharray="none"
           id="text22">−</text>
        <text
           fill="none"
           stroke="#ffffff"
           font-family="'Times New Roman', Symbola, serif"
           font-size="17.71px"
           font-style="normal"
           font-weight="400"
           text-decoration="normal"
           x="15.757812"
           y="15.46212"
           text-anchor="start"
           stroke-linecap="round"
           stroke-linejoin="round"
           stroke-miterlimit="2"
           stroke-width="3"
           stroke-dasharray="none"
           id="text23">π</text>
        <text
           fill="none"
           stroke="#ffffff"
           font-family="Symbola, 'Times New Roman', serif"
           font-size="17.71px"
           font-style="normal"
           font-weight="400"
           text-decoration="normal"
           x="24.703125"
           y="15.46212"
           text-anchor="start"
           stroke-linecap="round"
           stroke-linejoin="round"
           stroke-miterlimit="2"
           stroke-width="3"
           stroke-dasharray="none"
           id="text24">/</text>
        <text
           fill="none"
           stroke="#ffffff"
           font-family="Symbola, 'Times New Roman', serif"
           font-size="17.71px"
           font-style="normal"
           font-weight="400"
           text-decoration="normal"
           x="29.78125"
           y="15.46212"
           text-anchor="start"
           stroke-linecap="round"
           stroke-linejoin="round"
           stroke-miterlimit="2"
           stroke-width="3"
           stroke-dasharray="none"
           id="text25">6</text>
        <text
           fill="#c74440"
           stroke="none"
           font-family="Symbola, 'Times New Roman', serif"
           font-size="17.71px"
           font-style="normal"
           font-weight="400"
           text-decoration="normal"
           x="2"
           y="15.46212"
           text-anchor="start"
           id="text26">−</text>
        <text
           fill="#c74440"
           stroke="none"
           font-family="'Times New Roman', Symbola, serif"
           font-size="17.71px"
           font-style="normal"
           font-weight="400"
           text-decoration="normal"
           x="15.757812"
           y="15.46212"
           text-anchor="start"
           id="text27">π</text>
        <text
           fill="#c74440"
           stroke="none"
           font-family="Symbola, 'Times New Roman', serif"
           font-size="17.71px"
           font-style="normal"
           font-weight="400"
           text-decoration="normal"
           x="24.703125"
           y="15.46212"
           text-anchor="start"
           id="text28">/</text>
        <text
           fill="#c74440"
           stroke="none"
           font-family="Symbola, 'Times New Roman', serif"
           font-size="17.71px"
           font-style="normal"
           font-weight="400"
           text-decoration="normal"
           x="29.78125"
           y="15.46212"
           text-anchor="start"
           id="text29">6</text>
      </g>
    </g>
  </g>
  <g
     id="g31"
     transform="scale(2)" />
</svg>
