<svg version="1.1" xmlns="http://www.w3.org/2000/svg" xmlns:xlink="http://www.w3.org/1999/xlink" width="800" height="800"><defs/><g transform="scale(2,2)"><g id="background-15c35667"><rect fill="white" stroke="none" x="0" y="0" width="400" height="400" class="dcg-svg-background"/></g><g id="graphpaper-15c35667"><g id="axis-15c35667"><g id="yaxis-15c35667"><title>y</title><g><path fill="none" stroke="rgb(0,0,0)" class="dcg-svg-axis-line" paint-order="fill stroke markers" d=" M 219 3 L 219 400" stroke-opacity="0.9" stroke-miterlimit="10" stroke-width="1.5" stroke-dasharray=""/><g class="dcg-svg-axis-line"><path fill="rgb(0,0,0)" stroke="rgb(0,0,0)" class="dcg-svg-axis-line" paint-order="stroke fill markers" d=" M 219 1.5 L 222.10582854123024 13.09110991546882 L 215.89417145876976 13.09110991546882 L 219 1.5 L 222.10582854123024 13.09110991546882" stroke-opacity="0.9" stroke-linejoin="round" stroke-miterlimit="10" stroke-width="1.5" stroke-dasharray="" fill-opacity="0.9"/></g></g></g><g id="xaxis-15c35667"><title>x</title><g><path fill="none" stroke="rgb(0,0,0)" class="dcg-svg-axis-line" paint-order="fill stroke markers" d=" M 0 186 L 397 186" stroke-opacity="0.9" stroke-miterlimit="10" stroke-width="1.5" stroke-dasharray=""/><g class="dcg-svg-axis-line"><path fill="rgb(0,0,0)" stroke="rgb(0,0,0)" class="dcg-svg-axis-line" paint-order="stroke fill markers" d=" M 398.5 186 L 386.9088900845312 189.10582854123027 L 386.9088900845312 182.89417145876976 L 398.5 186 L 386.9088900845312 189.10582854123027" stroke-opacity="0.9" stroke-linejoin="round" stroke-miterlimit="10" stroke-width="1.5" stroke-dasharray="" fill-opacity="0.9"/></g></g></g><g><g><path fill="none" stroke="rgb(0,0,0)" class="dcg-svg-tickmark" paint-order="fill stroke markers" d="" stroke-opacity="0.9" stroke-miterlimit="2" stroke-width="1.5" stroke-dasharray=""/></g></g><g class="dcg-svg-axis-label"><text fill="none" stroke="#ffffff" font-family="Times" font-size="20px" font-style="italic" font-weight="normal" text-decoration="normal" x="376.123046875" y="200.63586475813412" text-anchor="start" stroke-miterlimit="2" stroke-width="3" stroke-dasharray="">x</text><text fill="#000000" stroke="none" font-family="Times" font-size="20px" font-style="italic" font-weight="normal" text-decoration="normal" x="376.123046875" y="200.63586475813412" text-anchor="start">x</text></g><g class="dcg-svg-axis-label" transform="translate(204.60031244814417,29)"><text fill="none" stroke="#ffffff" font-family="Times" font-size="20px" font-style="italic" font-weight="normal" text-decoration="normal" x="0" y="0" text-anchor="start" stroke-miterlimit="2" stroke-width="3" stroke-dasharray="">y</text><text fill="#000000" stroke="none" font-family="Times" font-size="20px" font-style="italic" font-weight="normal" text-decoration="normal" x="0" y="0" text-anchor="start">y</text></g></g></g><g id="expressions-15c35667"><g id="sketch-15c35667"><title>pi</title></g><g id="sketch-15c35667"><title>Expression 3</title><path fill="#000000" stroke="none" paint-order="stroke fill markers" d="" fill-opacity="0.4"/><g><path fill="none" stroke="#000000" class="dcg-svg-curve" paint-order="fill stroke markers" d=" M 71.7756308310548 185.63586475813412 L 71.7756308310548 185.63586475813412 L 71.875 191.05288452555246 L 72.16796875 196.39430214264257 L 72.65625 201.74059361509217 L 73.33984375 207.0747744405318 L 74.21875 212.3891179990433 L 75.29296875 217.67742300833532 L 76.56249999999997 222.93388999619214 L 78.125 228.4763820615572 L 79.8828125 233.89725281002632 L 81.8359375 239.2141972419532 L 84.08203124999997 244.66046495217563 L 86.62109375000003 250.17275741640177 L 89.35546874999997 255.5221359206589 L 92.38281249999999 260.8872627752069 L 95.70312499999997 266.23198768514027 L 99.4140625 271.6626057942939 L 103.41796875 276.9923780804083 L 107.71484374999997 282.2015624655039 L 112.20703125 287.16846904731443 L 116.79687499999999 291.80794346639004 L 121.58203125 296.2355754372413 L 126.46484375 300.3723554316727 L 131.54296875 304.30908139821975 L 136.71875 307.9747424937712 L 141.9921875 311.3809862598618 L 147.4609375 314.5909786402395 L 153.02734375 317.54560964145776 L 158.69140625 320.2495795565618 L 164.453125 322.705616562361 L 170.3125 324.9147171788202 L 176.26953125 326.8763143472871 L 182.2265625 328.56297214522823 L 188.28124999999997 330.0054651518653 L 194.3359375 331.18203107042143 L 200.48828125 332.11177192330877 L 206.640625 332.77863068388865 L 212.79296875 333.1861717095789 L 218.9453125 333.33654157247184 L 225.09765625 333.23052629480685 L 231.25 332.86757204158647 L 237.40234375 332.2457705552496 L 243.5546875 331.3618084292651 L 249.609375 330.23126194273834 L 255.6640625 328.8360345682987 L 261.62109375 327.19740844880295 L 267.578125 325.2857134078313 L 273.4375 323.12792273271043 L 279.19921875 320.72495097247986 L 284.86328125 318.0761979629077 L 290.4296875 315.1793969324535 L 295.8984375 312.03039544206615 L 301.171875 308.6877387628765 L 306.34765625 305.09007409851677 L 311.42578125 301.2267094228761 L 316.30859375 297.1682223454799 L 321.09375 292.8266432710831 L 325.68359375 288.28082937245665 L 330.078125 283.5298012380122 L 334.375 278.44902939042777 L 338.4765625 273.12838007458583 L 342.3828125 267.55045100561506 L 345.8984375 262.01295683505145 L 349.12109375 256.40486023733706 L 351.953125 250.94987224964768 L 354.4921875 245.52529423087654 L 356.8359375 239.93474275737046 L 358.88671875 234.4290740235187 L 360.64453125 229.08210748182165 L 362.20703125 223.63569232768236 L 363.57421875 218.06796291154683 L 364.6484375 212.85908548729924 L 365.52734375 207.66193045357494 L 366.2109375 202.51787969555852 L 366.69921875 197.5299560759797 L 366.9921875 193.06019734761378 L 367.08984375 190.76418509399605 L 367.17890031523353 185.63586475813412" stroke-linecap="round" stroke-linejoin="round" stroke-miterlimit="10" stroke-width="2.5" stroke-dasharray=""/></g><path fill="#000000" stroke="none" paint-order="stroke fill markers" d="" fill-opacity="0.4"/><g><path fill="none" stroke="#000000" class="dcg-svg-curve" paint-order="fill stroke markers" d=" M 71.7756308310548 185.63586475813412 L 71.7756308310548 185.63586475813412 L 71.875 180.21884499071578 L 72.16796875 174.87742737362566 L 72.65625 169.53113590117607 L 73.33984375 164.1969550757364 L 74.21875 158.88261151722494 L 75.29296875 153.5943065079329 L 76.56249999999997 148.33783952007607 L 78.125 142.79534745471102 L 79.8828125 137.37447670624192 L 81.8359375 132.05753227431504 L 84.08203124999997 126.61126456409261 L 86.62109375000003 121.09897209986649 L 89.35546874999997 115.74959359560935 L 92.38281249999999 110.38446674106135 L 95.70312499999997 105.03974183112796 L 99.4140625 99.60912372197438 L 103.41796875 94.27935143585994 L 107.71484374999997 89.07016705076435 L 112.20703125 84.10326046895382 L 116.79687499999999 79.4637860498782 L 121.58203125 75.03615407902693 L 126.46484375 70.89937408459551 L 131.54296875 66.96264811804852 L 136.71875 63.29698702249702 L 141.9921875 59.890743256406466 L 147.4609375 56.68075087602875 L 153.02734375 53.72611987481051 L 158.69140625 51.02214995970647 L 164.453125 48.566112953907236 L 170.3125 46.357012337448026 L 176.26953125 44.39541516898112 L 182.2265625 42.708757371040036 L 188.28124999999997 41.26626436440296 L 194.3359375 40.08969844584678 L 200.48828125 39.1599575929595 L 206.640625 38.49309883237959 L 212.79296875 38.08555780668934 L 218.9453125 37.93518794379639 L 225.09765625 38.04120322146139 L 231.25 38.40415747468174 L 237.40234375 39.02595896101863 L 243.5546875 39.90992108700314 L 249.609375 41.04046757352987 L 255.6640625 42.43569494796952 L 261.62109375 44.07432106746532 L 267.578125 45.9860161084369 L 273.4375 48.143806783557835 L 279.19921875 50.546778543788406 L 284.86328125 53.195531553360524 L 290.4296875 56.09233258381471 L 295.8984375 59.24133407420203 L 301.171875 62.58399075339179 L 306.34765625 66.18165541775153 L 311.42578125 70.04502009339213 L 316.30859375 74.10350717078835 L 321.09375 78.44508624518512 L 325.68359375 82.99090014381157 L 330.078125 87.74192827825603 L 334.375 92.82270012584044 L 338.4765625 98.14334944168237 L 342.3828125 103.7212785106532 L 345.8984375 109.25877268121675 L 349.12109375 114.86686927893119 L 351.953125 120.32185726662057 L 354.4921875 125.7464352853917 L 356.8359375 131.33698675889778 L 358.88671875 136.84265549274951 L 360.64453125 142.1896220344466 L 362.20703125 147.63603718858587 L 363.57421875 153.2037666047214 L 364.6484375 158.41264402896897 L 365.52734375 163.6097990626933 L 366.2109375 168.75384982070972 L 366.69921875 173.74177344028854 L 366.9921875 178.21153216865446 L 367.08984375 180.5075444222722 L 367.17890031523353 185.63586475813412" stroke-linecap="round" stroke-linejoin="round" stroke-miterlimit="10" stroke-width="2.5" stroke-dasharray=""/></g></g><g id="sketch-15c35667"><title>Expression 4</title><path fill="#c74440" stroke="none" paint-order="stroke fill markers" d="" fill-opacity="0.4"/><path fill="#c74440" stroke="none" paint-order="stroke fill markers" d="" fill-opacity="0.4"/><g><path fill="none" stroke="#c74440" class="dcg-svg-curve" paint-order="fill stroke markers" d=" M 196.59542671059526 185.63586444687618 L 196.59542671059526 185.63586444687618 L 196.77734375 182.75626427285903 L 197.16796875 180.54923276943046 L 197.75390625 178.44738721075186 L 198.53515625 176.41596200218643 L 199.609375 174.28485273694312 L 200.9765625 172.1710017610217 L 202.63671875 170.14475335742625 L 204.4921875 168.34349693665212 L 206.54296875 166.76041733502768 L 208.69140625 165.45558258981458 L 210.9375 164.4073237416772 L 213.28124999999997 163.6088826509773 L 215.625 163.08063033936517 L 218.06640625 162.7975630327004 L 220.5078125 162.77724444186833 L 222.94921875 163.01896641045232 L 225.29296875 163.5054299162617 L 227.63671875 164.2582626104107 L 229.8828125 165.256876979428 L 232.03125 166.50536490209498 L 233.984375 167.9406019511317 L 235.83984375 169.64072220991235 L 237.5 171.53765233560767 L 238.96484375 173.64366535466414 L 240.13671875 175.79891684910484 L 241.015625 177.9107354432796 L 241.69921875 180.18028534460882 L 242.08984375 182.13588505430187 L 242.28515625 183.79774816655276 L 242.35910443569307 185.63586444687618" stroke-linecap="round" stroke-linejoin="round" stroke-miterlimit="10" stroke-width="2.5" stroke-dasharray=""/></g></g><g id="sketch-15c35667"><title>Expression 5</title><path fill="#c74440" stroke="none" paint-order="stroke fill markers" d="" fill-opacity="0.4"/><g><path fill="none" stroke="#c74440" class="dcg-svg-curve" paint-order="fill stroke markers" d=" M 71.7756308310548 185.63586475813412 L 71.7756308310548 185.63586475813412 L 219.47726557314417 185.63586475813412" stroke-linecap="round" stroke-linejoin="round" stroke-miterlimit="10" stroke-width="2.5" stroke-dasharray=""/></g></g><g id="sketch-15c35667"><title>Expression 8</title><path fill="#c74440" stroke="none" paint-order="stroke fill markers" d="" fill-opacity="0.4"/><g><path fill="none" stroke="#c74440" class="dcg-svg-curve" paint-order="fill stroke markers" d=" M 219.47726557314417 185.63586475813412 L 219.47726557314417 185.63586475813412 L 367.17890031523353 185.63586475813412" stroke-linecap="round" stroke-linejoin="round" stroke-miterlimit="10" stroke-width="2.5" stroke-dasharray=""/></g></g></g><g id="labels-15c35667"><g transform="rotate(0,0,0) translate(171.5,151)"><g class="dcg-svg-label"><text fill="none" stroke="#ffffff" font-family="&quot;Times New Roman&quot;, Symbola, serif" font-size="17.71px" font-style="normal" font-weight="400" text-decoration="normal" x="2" y="15.462119999999999" text-anchor="start" stroke-linecap="round" stroke-linejoin="round" stroke-miterlimit="2" stroke-width="3" stroke-dasharray="">π</text><text fill="rgb(199, 68, 64)" stroke="none" font-family="&quot;Times New Roman&quot;, Symbola, serif" font-size="17.71px" font-style="normal" font-weight="400" text-decoration="normal" x="2" y="15.462119999999999" text-anchor="start">π</text></g></g></g><g id="labels-15c35667"/></g></svg>